G04*
G04 #@! TF.GenerationSoftware,Altium Limited,Altium Designer,20.0.10 (225)*
G04*
G04 Layer_Physical_Order=1*
G04 Layer_Color=255*
%FSLAX44Y44*%
%MOMM*%
G71*
G01*
G75*
%ADD12C,0.5000*%
%ADD26C,5.7500*%
%ADD32R,1.2500X1.0000*%
%ADD33R,1.0000X1.2500*%
%ADD34R,1.5500X0.6000*%
%ADD35C,6.0000*%
%ADD36C,0.8000*%
%ADD37C,2.5000*%
%ADD38C,0.6000*%
%ADD39C,5.0000*%
%ADD40C,4.5000*%
%ADD41C,1.5000*%
%ADD42C,1.6000*%
%ADD43C,1.5000*%
%ADD44R,1.5000X1.5000*%
%ADD45R,1.5000X1.5000*%
%ADD46O,2.0000X1.0000*%
%ADD47O,2.0000X1.0000*%
%ADD48C,2.0000*%
%ADD49R,1.6000X1.6000*%
%ADD50C,5.6000*%
%ADD51C,2.6500*%
%ADD52C,2.5000*%
%ADD53C,3.0000*%
%ADD54R,2.0000X2.0000*%
%ADD55C,0.7000*%
G36*
X995941Y993331D02*
Y835160D01*
X993159Y833376D01*
X992941Y833405D01*
X987663Y841303D01*
X961303Y867664D01*
X953199Y873079D01*
X943640Y874980D01*
X910000D01*
X900441Y873079D01*
X892337Y867664D01*
X886922Y859559D01*
X885020Y850000D01*
X886922Y840441D01*
X892337Y832337D01*
X900441Y826922D01*
X906416Y825733D01*
X906120Y822733D01*
X840500D01*
X833452Y821805D01*
X826883Y819084D01*
X821243Y814757D01*
X816916Y809117D01*
X814195Y802549D01*
X813267Y795500D01*
X814195Y788452D01*
X816916Y781884D01*
X817256Y781440D01*
X792310Y756494D01*
X597000D01*
Y758250D01*
X583000D01*
Y741750D01*
X597000D01*
Y743506D01*
X753769D01*
X754366Y740506D01*
X752153Y739589D01*
X689058Y676494D01*
X558250D01*
Y677000D01*
X541750D01*
Y675412D01*
X538250D01*
Y677000D01*
X529404D01*
X526175Y680228D01*
X527323Y683000D01*
X538250D01*
Y684588D01*
X541750D01*
Y683000D01*
X558250D01*
Y697000D01*
X541750D01*
Y695412D01*
X538250D01*
Y697000D01*
X529404D01*
X527977Y698427D01*
X527197Y698750D01*
X527793Y701750D01*
X537000D01*
Y718250D01*
X523000D01*
Y712712D01*
X518469D01*
X516750Y715000D01*
X516750Y715712D01*
Y718500D01*
X497250D01*
Y715300D01*
X497250Y715000D01*
Y712300D01*
X497250Y712000D01*
Y702950D01*
X497250Y702300D01*
X496466Y699625D01*
X493573Y698427D01*
X493573Y698427D01*
X490058Y694912D01*
X488473Y691085D01*
X488473Y691085D01*
Y656115D01*
X488473Y656115D01*
X490058Y652288D01*
X496173Y646173D01*
X496173Y646173D01*
X500000Y644588D01*
X500000Y644588D01*
X523000D01*
Y641750D01*
X537000D01*
Y658250D01*
X523000D01*
Y655412D01*
X502242D01*
X499297Y658356D01*
Y676900D01*
X506005D01*
X507000Y676488D01*
X514608D01*
X521750Y669346D01*
Y663000D01*
X538250D01*
Y664588D01*
X541750D01*
Y663000D01*
X558250D01*
Y663506D01*
X573698D01*
X574295Y660506D01*
X571166Y659210D01*
X564408Y652451D01*
X562506Y647859D01*
Y637744D01*
X564408Y633152D01*
X572169Y625390D01*
X574332Y624494D01*
X573736Y621494D01*
X562690D01*
X556494Y627690D01*
Y641750D01*
X557000D01*
Y658250D01*
X543000D01*
Y641750D01*
X543506D01*
Y625000D01*
X545408Y620408D01*
X555408Y610408D01*
X560000Y608506D01*
X695310D01*
X721756Y582060D01*
X721415Y581617D01*
X718695Y575048D01*
X717767Y568000D01*
X718695Y560952D01*
X721415Y554384D01*
X725743Y548743D01*
X731384Y544416D01*
X737952Y541695D01*
X745000Y540767D01*
X907500D01*
X914548Y541695D01*
X921117Y544416D01*
X926757Y548743D01*
X931085Y554384D01*
X933805Y560952D01*
X934733Y568000D01*
X933805Y575048D01*
X931085Y581617D01*
X926757Y587257D01*
X921117Y591585D01*
X920065Y592020D01*
X920662Y595020D01*
X950000D01*
X959559Y596922D01*
X967664Y602337D01*
X987663Y622337D01*
X992941Y630235D01*
X993159Y630263D01*
X995941Y628479D01*
Y4059D01*
X4059D01*
Y629325D01*
X7059Y630235D01*
X8087Y628697D01*
X34447Y602337D01*
X42551Y596922D01*
X52110Y595020D01*
X80000D01*
X89559Y596922D01*
X97664Y602337D01*
X103079Y610441D01*
X104980Y620000D01*
X103079Y629560D01*
X97664Y637664D01*
X89559Y643079D01*
X83585Y644267D01*
X83880Y647267D01*
X243500D01*
X250548Y648195D01*
X257116Y650916D01*
X262757Y655243D01*
X267084Y660883D01*
X269805Y667452D01*
X270733Y674500D01*
X269942Y680506D01*
X271875Y683506D01*
X363000D01*
Y681750D01*
X377000D01*
Y698250D01*
X363000D01*
Y696494D01*
X262000D01*
X260174Y695738D01*
X257116Y698084D01*
X250548Y700805D01*
X243500Y701733D01*
X80000D01*
X72952Y700805D01*
X66384Y698084D01*
X60743Y693757D01*
X56416Y688117D01*
X53695Y681548D01*
X50730Y681956D01*
Y813293D01*
X62457Y825020D01*
X80000D01*
X89559Y826922D01*
X97664Y832337D01*
X103079Y840441D01*
X104980Y850000D01*
X103079Y859559D01*
X97664Y867664D01*
X89559Y873079D01*
X83585Y874267D01*
X83880Y877267D01*
X143506D01*
Y815000D01*
X145408Y810408D01*
X170408Y785408D01*
X175000Y783506D01*
X403000D01*
Y781750D01*
X417000D01*
Y798250D01*
X403000D01*
Y796494D01*
X177690D01*
X156494Y817690D01*
Y879001D01*
X161117Y880916D01*
X166757Y885243D01*
X171084Y890883D01*
X173805Y897452D01*
X174733Y904500D01*
X173805Y911548D01*
X171084Y918117D01*
X166757Y923757D01*
X161117Y928084D01*
X154548Y930805D01*
X147500Y931733D01*
X80000D01*
X72952Y930805D01*
X66384Y928084D01*
X60743Y923757D01*
X56416Y918117D01*
X53695Y911548D01*
X52767Y904500D01*
X53695Y897452D01*
X56416Y890883D01*
X60743Y885243D01*
X66384Y880916D01*
X72952Y878195D01*
X74584Y877980D01*
X74387Y874980D01*
X52110D01*
X42551Y873079D01*
X34447Y867664D01*
X8087Y841303D01*
X6930Y839572D01*
X4059Y840443D01*
Y995941D01*
X992941Y995941D01*
X995941Y993331D01*
D02*
G37*
G36*
X945020Y813293D02*
Y760400D01*
Y709600D01*
Y650347D01*
X939653Y644980D01*
X910000D01*
X900441Y643079D01*
X892337Y637664D01*
X886922Y629560D01*
X885020Y620000D01*
X886922Y610441D01*
X892337Y602337D01*
X898478Y598233D01*
X897568Y595233D01*
X745000D01*
X737952Y594305D01*
X731384Y591585D01*
X730940Y591244D01*
X702592Y619592D01*
X698000Y621494D01*
X595868D01*
X594958Y624494D01*
X595047Y624553D01*
X596594Y626869D01*
X597137Y629600D01*
X596594Y632331D01*
X595509Y633954D01*
X595229Y635950D01*
X595509Y637946D01*
X596594Y639569D01*
X596839Y640800D01*
X585000D01*
Y643800D01*
X596839D01*
X596594Y645031D01*
X595509Y646654D01*
X595229Y648650D01*
X595509Y650646D01*
X596594Y652269D01*
X597137Y655000D01*
X596594Y657731D01*
X595047Y660047D01*
X594360Y660506D01*
X595270Y663506D01*
X691748D01*
X696341Y665408D01*
X759435Y728503D01*
X887994D01*
Y726747D01*
X901994D01*
Y743247D01*
X887994D01*
Y741491D01*
X797976D01*
X797379Y744491D01*
X799592Y745408D01*
X826440Y772256D01*
X826883Y771916D01*
X833452Y769195D01*
X840500Y768267D01*
X910000D01*
X917048Y769195D01*
X923617Y771916D01*
X929257Y776243D01*
X933585Y781884D01*
X936305Y788452D01*
X937233Y795500D01*
X936305Y802549D01*
X933585Y809117D01*
X929257Y814757D01*
X923617Y819084D01*
X917048Y821805D01*
X915416Y822020D01*
X915612Y825020D01*
X933292D01*
X945020Y813293D01*
D02*
G37*
%LPC*%
G36*
X246500Y978937D02*
Y968500D01*
X256937D01*
X256304Y971682D01*
X253652Y975651D01*
X249682Y978304D01*
X246500Y978937D01*
D02*
G37*
G36*
X243500D02*
X240318Y978304D01*
X236348Y975651D01*
X233696Y971682D01*
X233063Y968500D01*
X243500D01*
Y978937D01*
D02*
G37*
G36*
Y965500D02*
X233063D01*
X233696Y962318D01*
X236348Y958348D01*
X240318Y955696D01*
X243500Y955063D01*
Y965500D01*
D02*
G37*
G36*
X256937D02*
X246500D01*
Y955063D01*
X249682Y955696D01*
X253652Y958348D01*
X256304Y962318D01*
X256937Y965500D01*
D02*
G37*
G36*
X910000Y921833D02*
X903367Y920514D01*
X897744Y916756D01*
X894062Y911247D01*
X881997D01*
Y913255D01*
X867997D01*
Y896755D01*
X868504D01*
Y893250D01*
X868000D01*
Y876750D01*
X882000D01*
Y893250D01*
X881493D01*
Y896755D01*
X881997D01*
Y898258D01*
X893909D01*
X893987Y897867D01*
X897744Y892244D01*
X903367Y888486D01*
X910000Y887167D01*
X916633Y888486D01*
X922256Y892244D01*
X926014Y897867D01*
X927333Y904500D01*
X926014Y911133D01*
X922256Y916756D01*
X916633Y920514D01*
X910000Y921833D01*
D02*
G37*
G36*
X861997Y913255D02*
X856497D01*
Y906505D01*
X861997D01*
Y913255D01*
D02*
G37*
G36*
X853497D02*
X847997D01*
Y906505D01*
X853497D01*
Y913255D01*
D02*
G37*
G36*
X861997Y903505D02*
X856497D01*
Y896755D01*
X861997D01*
Y903505D01*
D02*
G37*
G36*
X853497D02*
X847997D01*
Y896755D01*
X853497D01*
Y903505D01*
D02*
G37*
G36*
X746500Y873937D02*
Y863500D01*
X756937D01*
X756304Y866682D01*
X753652Y870652D01*
X749682Y873304D01*
X746500Y873937D01*
D02*
G37*
G36*
X743500Y873937D02*
X740318Y873304D01*
X736348Y870652D01*
X733696Y866682D01*
X733063Y863500D01*
X743500D01*
Y873937D01*
D02*
G37*
G36*
Y860500D02*
X733063D01*
X733696Y857318D01*
X736348Y853349D01*
X740318Y850696D01*
X743500Y850063D01*
Y860500D01*
D02*
G37*
G36*
X756937D02*
X746500D01*
Y850063D01*
X749682Y850696D01*
X753652Y853349D01*
X756304Y857318D01*
X756937Y860500D01*
D02*
G37*
G36*
X862000Y893250D02*
X848000D01*
Y886691D01*
X847158Y886342D01*
X737310Y776494D01*
X558250D01*
Y777000D01*
X541750D01*
Y776494D01*
X538250D01*
Y777000D01*
X521750D01*
Y770654D01*
X514608Y763512D01*
X507000D01*
X506005Y763100D01*
X497250D01*
Y753100D01*
X497250D01*
Y750400D01*
X497250D01*
Y740700D01*
X497250Y740400D01*
Y737700D01*
X497250Y737400D01*
Y728000D01*
X497250Y727700D01*
Y725000D01*
X497250Y724700D01*
Y721500D01*
X507000D01*
X516750D01*
Y724288D01*
X516750Y725000D01*
X518469Y727288D01*
X523003D01*
Y721745D01*
X537003D01*
Y738245D01*
X527781D01*
X527184Y741245D01*
X527977Y741573D01*
X529404Y743000D01*
X538250D01*
Y744588D01*
X541750D01*
Y743000D01*
X558250D01*
Y744588D01*
X563000D01*
Y741750D01*
X577000D01*
Y758250D01*
X563000D01*
Y755412D01*
X558250D01*
Y757000D01*
X541750D01*
Y755412D01*
X538250D01*
Y757000D01*
X527323D01*
X526175Y759772D01*
X529404Y763000D01*
X538250D01*
Y763506D01*
X541750D01*
Y763000D01*
X558250D01*
Y763506D01*
X740000D01*
X744592Y765408D01*
X855458Y876274D01*
X856608Y876750D01*
X862000D01*
Y893250D01*
D02*
G37*
G36*
X437000Y798250D02*
X423000D01*
Y781750D01*
X437000D01*
Y784588D01*
X449244D01*
X464588Y769243D01*
Y765339D01*
X462750Y763100D01*
X453995D01*
X453000Y763512D01*
X445392D01*
X438250Y770654D01*
Y777000D01*
X421750D01*
Y775412D01*
X418250D01*
Y777000D01*
X401750D01*
Y776494D01*
X108750D01*
X104158Y774592D01*
X103076Y771979D01*
X94346Y763250D01*
X88000D01*
Y746750D01*
X102000D01*
Y755596D01*
X109909Y763506D01*
X401750D01*
Y763000D01*
X418250D01*
Y764588D01*
X421750D01*
Y763000D01*
X430596D01*
X433825Y759772D01*
X432677Y757000D01*
X421750D01*
Y755412D01*
X418250D01*
Y757000D01*
X401750D01*
Y743000D01*
X418250D01*
Y744588D01*
X421750D01*
Y743000D01*
X430596D01*
X432023Y741573D01*
X432023Y741573D01*
X432803Y741250D01*
X432207Y738250D01*
X428000D01*
Y721750D01*
X439403D01*
X440413Y720000D01*
X439403Y718250D01*
X428000D01*
Y701750D01*
X432207D01*
X432803Y698750D01*
X432023Y698427D01*
X432023Y698427D01*
X430596Y697000D01*
X421750D01*
Y695412D01*
X418250D01*
Y697000D01*
X401750D01*
Y695412D01*
X397000D01*
Y698250D01*
X383000D01*
Y681750D01*
X397000D01*
Y684588D01*
X401750D01*
Y683000D01*
X418250D01*
Y684588D01*
X421750D01*
Y683000D01*
X432677D01*
X433825Y680228D01*
X430596Y677000D01*
X421750D01*
Y675412D01*
X418250D01*
Y677000D01*
X401750D01*
Y676494D01*
X323250D01*
X318658Y674592D01*
X220560Y576494D01*
X147000D01*
Y578250D01*
X133000D01*
Y561750D01*
X147000D01*
Y563506D01*
X223250D01*
X227842Y565408D01*
X325940Y663506D01*
X401750D01*
Y663000D01*
X418250D01*
Y664588D01*
X421750D01*
Y663000D01*
X438250D01*
Y669346D01*
X445392Y676488D01*
X453000D01*
X453021Y676497D01*
X454819Y674357D01*
X454967Y673900D01*
X453506Y670372D01*
Y658250D01*
X453000D01*
Y641750D01*
X453506D01*
Y619500D01*
X450500D01*
Y616785D01*
X447500Y615875D01*
X446849Y616849D01*
X443707Y618949D01*
X441500Y619388D01*
Y610000D01*
Y600612D01*
X443707Y601051D01*
X446849Y603151D01*
X447314Y603847D01*
X450314Y602937D01*
Y483787D01*
X450314Y483787D01*
X451051Y480080D01*
X453151Y476938D01*
X461938Y468151D01*
X461938Y468151D01*
X465080Y466051D01*
X468787Y465314D01*
X468787Y465314D01*
X592811D01*
X666212Y391913D01*
X664260Y389623D01*
X658220Y390418D01*
Y361100D01*
X687538D01*
X686678Y367627D01*
X684576Y372702D01*
X686734Y375332D01*
X686824Y375314D01*
X686824Y375314D01*
X817897D01*
X820011Y373901D01*
X820175Y372300D01*
X820011Y370699D01*
X816348Y368251D01*
X813696Y364282D01*
X813063Y361100D01*
X825000D01*
X836937D01*
X836304Y364282D01*
X833652Y368251D01*
X829989Y370699D01*
X829825Y372300D01*
X829989Y373901D01*
X833652Y376348D01*
X836304Y380318D01*
X837235Y385000D01*
X836304Y389682D01*
X833652Y393652D01*
X829682Y396304D01*
X825000Y397235D01*
X820318Y396304D01*
X817897Y394686D01*
X690836D01*
X603673Y481849D01*
X600530Y483949D01*
X596824Y484686D01*
X596823Y484686D01*
X472799D01*
X469686Y487799D01*
Y610000D01*
X469686Y610000D01*
X469500Y610936D01*
Y619500D01*
X466494D01*
Y641750D01*
X467000D01*
Y658250D01*
X466494D01*
Y667682D01*
X474592Y675780D01*
X476494Y680372D01*
Y715314D01*
X474592Y719906D01*
X469906Y724592D01*
X465314Y726494D01*
X465251D01*
X462750Y727700D01*
X462750Y729494D01*
Y736988D01*
X462750Y737700D01*
X464469Y739988D01*
X465400D01*
X465400Y739988D01*
X469227Y741573D01*
X473827Y746173D01*
X473827Y746173D01*
X475412Y750000D01*
X475412Y750000D01*
Y771485D01*
X475412Y771485D01*
X473827Y775312D01*
X455312Y793827D01*
X451485Y795412D01*
X451485Y795412D01*
X437000D01*
Y798250D01*
D02*
G37*
G36*
X102010Y743253D02*
X96510D01*
Y736503D01*
X102010D01*
Y743253D01*
D02*
G37*
G36*
X93510D02*
X88010D01*
Y736503D01*
X93510D01*
Y743253D01*
D02*
G37*
G36*
X102010Y733503D02*
X96510D01*
Y726753D01*
X102010D01*
Y733503D01*
D02*
G37*
G36*
X93510D02*
X88010D01*
Y726753D01*
X93510D01*
Y733503D01*
D02*
G37*
G36*
X80000Y812833D02*
X73367Y811514D01*
X67744Y807756D01*
X63986Y802133D01*
X62667Y795500D01*
X63986Y788867D01*
X67744Y783244D01*
X69506Y782066D01*
Y763250D01*
X68000D01*
Y746750D01*
X68511D01*
Y743253D01*
X68010D01*
Y726753D01*
X82010D01*
Y743253D01*
X81499D01*
Y746750D01*
X82000D01*
Y754807D01*
X82494Y756000D01*
Y778663D01*
X86633Y779486D01*
X92256Y783244D01*
X96014Y788867D01*
X97333Y795500D01*
X96014Y802133D01*
X92256Y807756D01*
X86633Y811514D01*
X80000Y812833D01*
D02*
G37*
G36*
X635300Y729500D02*
X627300D01*
Y721500D01*
X635300D01*
Y729500D01*
D02*
G37*
G36*
X624300D02*
X616300D01*
Y721500D01*
X624300D01*
Y729500D01*
D02*
G37*
G36*
X635300Y718500D02*
X627300D01*
Y710500D01*
X635300D01*
Y718500D01*
D02*
G37*
G36*
X624300D02*
X616300D01*
Y710500D01*
X624300D01*
Y718500D01*
D02*
G37*
G36*
X600400Y729686D02*
X596693Y728949D01*
X593551Y726849D01*
X591451Y723707D01*
X590714Y720000D01*
X591451Y716293D01*
X593551Y713151D01*
X596693Y711051D01*
X600400Y710314D01*
X604107Y711051D01*
X607249Y713151D01*
X609349Y716293D01*
X610086Y720000D01*
X609349Y723707D01*
X607249Y726849D01*
X604107Y728949D01*
X600400Y729686D01*
D02*
G37*
G36*
X575000D02*
X571293Y728949D01*
X568151Y726849D01*
X566051Y723707D01*
X565314Y720000D01*
X566051Y716293D01*
X568151Y713151D01*
X571293Y711051D01*
X575000Y710314D01*
X578707Y711051D01*
X581849Y713151D01*
X583949Y716293D01*
X584686Y720000D01*
X583949Y723707D01*
X581849Y726849D01*
X578707Y728949D01*
X575000Y729686D01*
D02*
G37*
G36*
X557003Y738245D02*
X543003D01*
Y721745D01*
X543003D01*
X544048Y719997D01*
X543000Y718250D01*
X543000D01*
Y701750D01*
X557000D01*
Y718250D01*
X557000D01*
X555955Y719997D01*
X557003Y721745D01*
X557003D01*
Y738245D01*
D02*
G37*
G36*
X422000Y738250D02*
X408000D01*
Y721750D01*
X408000D01*
X409047Y720000D01*
X408000Y718250D01*
X408000D01*
Y701750D01*
X422000D01*
Y718250D01*
X422000D01*
X420953Y720000D01*
X422000Y721750D01*
X422000D01*
Y738250D01*
D02*
G37*
G36*
X447000Y658250D02*
X441500D01*
Y651500D01*
X447000D01*
Y658250D01*
D02*
G37*
G36*
X438500D02*
X433000D01*
Y651500D01*
X438500D01*
Y658250D01*
D02*
G37*
G36*
X447000Y648500D02*
X441500D01*
Y641750D01*
X447000D01*
Y648500D01*
D02*
G37*
G36*
X438500D02*
X433000D01*
Y641750D01*
X438500D01*
Y648500D01*
D02*
G37*
G36*
X151500Y624937D02*
Y614500D01*
X161937D01*
X161304Y617682D01*
X158652Y621651D01*
X154682Y624304D01*
X151500Y624937D01*
D02*
G37*
G36*
X148500Y624937D02*
X145318Y624304D01*
X141348Y621651D01*
X138696Y617682D01*
X138063Y614500D01*
X148500D01*
Y624937D01*
D02*
G37*
G36*
X438500Y619388D02*
X436293Y618949D01*
X433151Y616849D01*
X431051Y613707D01*
X430612Y611500D01*
X438500D01*
Y619388D01*
D02*
G37*
G36*
X161937Y611500D02*
X151500D01*
Y601063D01*
X154682Y601696D01*
X158652Y604348D01*
X161304Y608318D01*
X161937Y611500D01*
D02*
G37*
G36*
X148500D02*
X138063D01*
X138696Y608318D01*
X141348Y604348D01*
X145318Y601696D01*
X148500Y601063D01*
Y611500D01*
D02*
G37*
G36*
X438500Y608500D02*
X430612D01*
X431051Y606293D01*
X433151Y603151D01*
X436293Y601051D01*
X438500Y600612D01*
Y608500D01*
D02*
G37*
G36*
X589500Y604500D02*
X570500D01*
Y585500D01*
X573215D01*
X574125Y582500D01*
X573151Y581849D01*
X571051Y578707D01*
X570612Y576500D01*
X580000D01*
X589388D01*
X588949Y578707D01*
X586849Y581849D01*
X585875Y582500D01*
X586785Y585500D01*
X589500D01*
Y604500D01*
D02*
G37*
G36*
X589388Y573500D02*
X581500D01*
Y565612D01*
X583707Y566051D01*
X586849Y568151D01*
X588949Y571293D01*
X589388Y573500D01*
D02*
G37*
G36*
X578500D02*
X570612D01*
X571051Y571293D01*
X573151Y568151D01*
X576293Y566051D01*
X578500Y565612D01*
Y573500D01*
D02*
G37*
G36*
X147000Y558250D02*
X141500D01*
Y551500D01*
X147000D01*
Y558250D01*
D02*
G37*
G36*
X138500D02*
X133000D01*
Y551500D01*
X138500D01*
Y558250D01*
D02*
G37*
G36*
X147000Y548500D02*
X141500D01*
Y541750D01*
X147000D01*
Y548500D01*
D02*
G37*
G36*
X138500D02*
X133000D01*
Y541750D01*
X138500D01*
Y548500D01*
D02*
G37*
G36*
X80000Y582833D02*
X73367Y581514D01*
X67744Y577756D01*
X63986Y572133D01*
X62667Y565500D01*
X63986Y558867D01*
X67744Y553244D01*
X73367Y549486D01*
X80000Y548167D01*
X86633Y549486D01*
X92256Y553244D01*
X96014Y558867D01*
X96489Y561256D01*
X113506D01*
Y558250D01*
X113000D01*
Y541750D01*
X127000D01*
Y558250D01*
X126494D01*
Y561750D01*
X127000D01*
Y578250D01*
X113000D01*
Y574244D01*
X94603D01*
X92256Y577756D01*
X86633Y581514D01*
X80000Y582833D01*
D02*
G37*
G36*
X841500Y512937D02*
Y502500D01*
X851937D01*
X851304Y505682D01*
X848652Y509652D01*
X844682Y512304D01*
X841500Y512937D01*
D02*
G37*
G36*
X838500Y512937D02*
X835318Y512304D01*
X831348Y509652D01*
X828696Y505682D01*
X828063Y502500D01*
X838500D01*
Y512937D01*
D02*
G37*
G36*
X971500Y515486D02*
Y502500D01*
X984485D01*
X983659Y506658D01*
X980454Y511454D01*
X975657Y514659D01*
X971500Y515486D01*
D02*
G37*
G36*
X968500D02*
X964342Y514659D01*
X959546Y511454D01*
X956341Y506658D01*
X955514Y502500D01*
X968500D01*
Y515486D01*
D02*
G37*
G36*
X838500Y499500D02*
X828063D01*
X828696Y496318D01*
X831348Y492349D01*
X835318Y489696D01*
X838500Y489063D01*
Y499500D01*
D02*
G37*
G36*
X851937D02*
X841500D01*
Y489063D01*
X844682Y489696D01*
X848652Y492349D01*
X851304Y496318D01*
X851937Y499500D01*
D02*
G37*
G36*
X984485Y499500D02*
X971500D01*
Y486514D01*
X975657Y487341D01*
X980454Y490546D01*
X983659Y495342D01*
X984485Y499500D01*
D02*
G37*
G36*
X968500D02*
X955514D01*
X956341Y495342D01*
X959546Y490546D01*
X964342Y487341D01*
X968500Y486514D01*
Y499500D01*
D02*
G37*
G36*
X971500Y464686D02*
Y451700D01*
X984485D01*
X983659Y455858D01*
X980454Y460654D01*
X975657Y463859D01*
X971500Y464686D01*
D02*
G37*
G36*
X968500D02*
X964342Y463859D01*
X959546Y460654D01*
X956341Y455858D01*
X955514Y451700D01*
X968500D01*
Y464686D01*
D02*
G37*
G36*
X984485Y448700D02*
X971500D01*
Y435714D01*
X975657Y436541D01*
X980454Y439746D01*
X983659Y444542D01*
X984485Y448700D01*
D02*
G37*
G36*
X968500D02*
X955514D01*
X956341Y444542D01*
X959546Y439746D01*
X964342Y436541D01*
X968500Y435714D01*
Y448700D01*
D02*
G37*
G36*
X121500Y455061D02*
Y426500D01*
X150061D01*
X149228Y432832D01*
X146205Y440129D01*
X141396Y446396D01*
X135129Y451205D01*
X127832Y454228D01*
X121500Y455061D01*
D02*
G37*
G36*
X118500D02*
X112168Y454228D01*
X104871Y451205D01*
X98604Y446396D01*
X93795Y440129D01*
X90772Y432832D01*
X89939Y426500D01*
X118500D01*
Y455061D01*
D02*
G37*
G36*
X435000Y470000D02*
X250000D01*
X180000Y400000D01*
X141366D01*
X140402Y402841D01*
X141396Y403604D01*
X146205Y409871D01*
X149228Y417168D01*
X150061Y423500D01*
X120000D01*
X89939D01*
X90772Y417168D01*
X93795Y409871D01*
X98604Y403604D01*
X99598Y402841D01*
X98634Y400000D01*
X50000D01*
Y100000D01*
X98634D01*
X99598Y97159D01*
X98604Y96396D01*
X93795Y90129D01*
X90772Y82832D01*
X89939Y76500D01*
X120000D01*
X150061D01*
X149228Y82832D01*
X146205Y90129D01*
X141396Y96396D01*
X140402Y97159D01*
X141366Y100000D01*
X175000D01*
X250000Y25000D01*
X396790D01*
X396878Y24848D01*
X435000Y25000D01*
Y470000D01*
D02*
G37*
G36*
X655220Y390418D02*
X648693Y389558D01*
X641212Y386460D01*
X634789Y381531D01*
X629860Y375108D01*
X626762Y367627D01*
X625902Y361100D01*
X655220D01*
Y390418D01*
D02*
G37*
G36*
Y358100D02*
X625902D01*
X626762Y351573D01*
X629860Y344092D01*
X634789Y337669D01*
X641212Y332740D01*
X648693Y329641D01*
X655220Y328782D01*
Y358100D01*
D02*
G37*
G36*
X687538D02*
X658220D01*
Y328782D01*
X664747Y329641D01*
X672228Y332740D01*
X678651Y337669D01*
X683580Y344092D01*
X686678Y351573D01*
X687538Y358100D01*
D02*
G37*
G36*
X836937Y358100D02*
X825000D01*
X813063D01*
X813696Y354918D01*
X816348Y350948D01*
X818965Y349200D01*
X818055Y346200D01*
X813000D01*
Y322200D01*
X837000D01*
Y346200D01*
X831945D01*
X831035Y349200D01*
X833652Y350948D01*
X836304Y354918D01*
X836937Y358100D01*
D02*
G37*
G36*
X572500Y320196D02*
X568598Y319420D01*
X565290Y317210D01*
X563080Y313902D01*
X562304Y310000D01*
X563080Y306098D01*
X565290Y302791D01*
X568598Y300580D01*
X572500Y299804D01*
X576402Y300580D01*
X579710Y302791D01*
X581920Y306098D01*
X582696Y310000D01*
X581920Y313902D01*
X579710Y317210D01*
X576402Y319420D01*
X572500Y320196D01*
D02*
G37*
G36*
X915000Y341784D02*
X909342Y340659D01*
X904546Y337454D01*
X841876Y274784D01*
X572500D01*
X566842Y273659D01*
X562046Y270454D01*
X558841Y265658D01*
X557716Y260000D01*
X558841Y254342D01*
X562046Y249546D01*
X566842Y246341D01*
X572500Y245216D01*
X848000D01*
X848000Y245216D01*
X853658Y246341D01*
X858454Y249546D01*
X925454Y316546D01*
X928659Y321342D01*
X929784Y327000D01*
X928659Y332658D01*
X925454Y337454D01*
X920658Y340659D01*
X915000Y341784D01*
D02*
G37*
G36*
X776500Y239897D02*
Y231500D01*
X784898D01*
X784420Y233902D01*
X782210Y237210D01*
X778902Y239420D01*
X776500Y239897D01*
D02*
G37*
G36*
X773500D02*
X771098Y239420D01*
X767790Y237210D01*
X765580Y233902D01*
X765102Y231500D01*
X773500D01*
Y239897D01*
D02*
G37*
G36*
X784898Y228500D02*
X776500D01*
Y220103D01*
X778902Y220580D01*
X782210Y222790D01*
X784420Y226098D01*
X784898Y228500D01*
D02*
G37*
G36*
X773500D02*
X765102D01*
X765580Y226098D01*
X767790Y222790D01*
X771098Y220580D01*
X773500Y220103D01*
Y228500D01*
D02*
G37*
G36*
X735000Y240000D02*
X715000D01*
Y220000D01*
X735000D01*
Y240000D01*
D02*
G37*
G36*
X572500Y120196D02*
X568598Y119420D01*
X565290Y117210D01*
X563080Y113902D01*
X562304Y110000D01*
X563080Y106098D01*
X565290Y102790D01*
X568598Y100580D01*
X572500Y99804D01*
X576402Y100580D01*
X579710Y102790D01*
X581920Y106098D01*
X582696Y110000D01*
X581920Y113902D01*
X579710Y117210D01*
X576402Y119420D01*
X572500Y120196D01*
D02*
G37*
G36*
X118500Y73500D02*
X89939D01*
X90772Y67168D01*
X93795Y59871D01*
X98604Y53604D01*
X104871Y48795D01*
X112168Y45772D01*
X118500Y44939D01*
Y73500D01*
D02*
G37*
G36*
X150061D02*
X121500D01*
Y44939D01*
X127832Y45772D01*
X135129Y48795D01*
X141396Y53604D01*
X146205Y59871D01*
X149228Y67168D01*
X150061Y73500D01*
D02*
G37*
G36*
X693500Y39871D02*
X690056Y38444D01*
X688629Y35000D01*
X690056Y31556D01*
X693500Y30129D01*
X696944Y31556D01*
X698371Y35000D01*
X696944Y38444D01*
X696944D01*
X693500Y39871D01*
D02*
G37*
G36*
X679709Y174784D02*
X679709Y174784D01*
X572500D01*
X566842Y173659D01*
X562046Y170454D01*
X558841Y165658D01*
X557716Y160000D01*
X558841Y154342D01*
X562046Y149546D01*
X566842Y146341D01*
X572500Y145216D01*
X673585D01*
X796255Y22546D01*
X796255Y22546D01*
X801051Y19341D01*
X806709Y18216D01*
X806709Y18216D01*
X915000D01*
X920658Y19341D01*
X925454Y22546D01*
X928659Y27342D01*
X929784Y33000D01*
X928659Y38658D01*
X925454Y43454D01*
X920658Y46659D01*
X915000Y47784D01*
X812833D01*
X690163Y170454D01*
X685367Y173659D01*
X679709Y174784D01*
D02*
G37*
G36*
X902000Y723250D02*
X896500D01*
Y716500D01*
X902000D01*
Y723250D01*
D02*
G37*
G36*
X893500D02*
X888000D01*
Y716500D01*
X893500D01*
Y723250D01*
D02*
G37*
G36*
X902000Y713500D02*
X896500D01*
Y706750D01*
X902000D01*
Y713500D01*
D02*
G37*
G36*
X893500D02*
X888000D01*
Y706750D01*
X893500D01*
Y713500D01*
D02*
G37*
G36*
X921994Y743247D02*
X907994D01*
Y726747D01*
X908503D01*
Y723250D01*
X908000D01*
Y715193D01*
X907506Y714000D01*
Y691337D01*
X903367Y690514D01*
X897744Y686756D01*
X893987Y681133D01*
X892667Y674500D01*
X893987Y667867D01*
X897744Y662244D01*
X903367Y658486D01*
X910000Y657167D01*
X916633Y658486D01*
X922256Y662244D01*
X926014Y667867D01*
X927333Y674500D01*
X926014Y681133D01*
X922256Y686756D01*
X920494Y687934D01*
Y706750D01*
X922000D01*
Y723250D01*
X921491D01*
Y726747D01*
X921994D01*
Y743247D01*
D02*
G37*
%LPD*%
D12*
X693500Y35000D02*
X693500Y35000D01*
D26*
X656720Y359600D02*
D03*
D32*
X550000Y770000D02*
D03*
Y750000D02*
D03*
X530000Y770000D02*
D03*
Y750000D02*
D03*
Y670000D02*
D03*
Y690000D02*
D03*
X550000Y670000D02*
D03*
Y690000D02*
D03*
X430000Y670000D02*
D03*
Y690000D02*
D03*
X410000D02*
D03*
Y670000D02*
D03*
X430000Y770000D02*
D03*
Y750000D02*
D03*
X410000Y770000D02*
D03*
Y750000D02*
D03*
D33*
X590000D02*
D03*
X570000D02*
D03*
X530003Y729995D02*
D03*
X550003D02*
D03*
X530000Y710000D02*
D03*
X550000D02*
D03*
X550000Y650000D02*
D03*
X530000D02*
D03*
X410000Y790000D02*
D03*
X430000D02*
D03*
X435000Y730000D02*
D03*
X415000D02*
D03*
X435000Y710000D02*
D03*
X415000D02*
D03*
X440000Y650000D02*
D03*
X460000D02*
D03*
X874997Y905005D02*
D03*
X854997D02*
D03*
X875000Y885000D02*
D03*
X855000D02*
D03*
X914994Y734997D02*
D03*
X894994D02*
D03*
X915000Y715000D02*
D03*
X895000D02*
D03*
X120000Y570000D02*
D03*
X140000D02*
D03*
X120000Y550000D02*
D03*
X140000D02*
D03*
X75000Y755000D02*
D03*
X95000D02*
D03*
X75010Y735003D02*
D03*
X95010D02*
D03*
X370000Y690000D02*
D03*
X390000D02*
D03*
D34*
X453000Y758100D02*
D03*
Y745400D02*
D03*
Y732700D02*
D03*
Y720000D02*
D03*
Y707300D02*
D03*
Y694600D02*
D03*
Y681900D02*
D03*
X507000Y758100D02*
D03*
Y745400D02*
D03*
Y732700D02*
D03*
Y720000D02*
D03*
Y707300D02*
D03*
Y694600D02*
D03*
Y681900D02*
D03*
D35*
X120000Y33250D02*
Y75000D01*
Y425000D02*
Y465000D01*
Y75000D02*
Y425000D01*
X702000Y862000D02*
X745000D01*
X700000Y860000D02*
X702000Y862000D01*
X245000Y905000D02*
Y962000D01*
X150000Y613000D02*
X177000D01*
X180000Y610000D01*
X965000Y450200D02*
Y501000D01*
X840000Y501000D02*
X965000D01*
D36*
X585000Y642300D02*
X622700D01*
X625000Y640000D01*
X485000Y720000D02*
X507000D01*
X965000Y501000D02*
X965000Y501000D01*
X323250Y670000D02*
X410000D01*
X223250Y570000D02*
X323250Y670000D01*
X140000Y570000D02*
X223250D01*
X120000Y550000D02*
Y569750D01*
Y570000D01*
X118000Y567750D02*
X120000Y569750D01*
X82250Y567750D02*
X118000D01*
X80000Y565500D02*
X82250Y567750D01*
X262000Y690000D02*
X370000D01*
X108750Y770000D02*
X410000D01*
X150000Y815000D02*
Y907000D01*
X175000Y790000D02*
X410000D01*
X150000Y815000D02*
X175000Y790000D01*
X75000Y755000D02*
X76000Y756000D01*
Y791500D01*
X80000Y795500D01*
X75005Y735008D02*
X75010Y735003D01*
X75005Y735008D02*
Y754995D01*
X75000Y755000D02*
X75005Y754995D01*
X550000Y670000D02*
X691748D01*
X756745Y734997D01*
X894994D01*
X698000Y615000D02*
X745000Y568000D01*
X560000Y615000D02*
X698000D01*
X550000Y625000D02*
Y650000D01*
Y625000D02*
X560000Y615000D01*
X590000Y750000D02*
X795000D01*
X840000Y795000D01*
X550000Y770000D02*
X740000D01*
X530000D02*
X550000D01*
X740000D02*
X851750Y881750D01*
X855000Y883750D02*
Y885000D01*
X853000Y881750D02*
X855000Y883750D01*
X851750Y881750D02*
X853000D01*
X874998Y905003D02*
X875249Y904753D01*
X874997Y905005D02*
X874998Y905003D01*
Y885002D02*
Y905003D01*
Y885002D02*
X875000Y885000D01*
X909748Y904753D02*
X910000Y904500D01*
X875249Y904753D02*
X909748D01*
X910000Y674500D02*
X914000Y678500D01*
Y714000D01*
X915000Y715000D01*
X914997Y715003D02*
X915000Y715000D01*
X914997Y715003D02*
Y734994D01*
X914994Y734997D02*
X914997Y734994D01*
X460000Y610000D02*
Y650000D01*
X460000Y650000D02*
X460000Y650000D01*
X453000Y720000D02*
X465314D01*
X460000Y650000D02*
Y670372D01*
X470000Y680372D01*
Y715314D01*
X465314Y720000D02*
X470000Y715314D01*
X578661Y576339D02*
X580000Y575000D01*
X575758Y654617D02*
X584617D01*
X584617Y629983D02*
X585000Y629600D01*
X576761Y629983D02*
X584617D01*
X569000Y637744D02*
X576761Y629983D01*
X569000Y637744D02*
Y647859D01*
X575758Y654617D01*
X584617D02*
X585000Y655000D01*
X528750Y770000D02*
X530000D01*
D37*
X276750Y401650D02*
Y440000D01*
X216500Y341400D02*
X276750Y401650D01*
X848000Y260000D02*
X915000Y327000D01*
X572500Y260000D02*
X848000D01*
X572500Y160000D02*
X679709D01*
X806709Y33000D01*
X915000D01*
X393250Y185750D02*
Y440000D01*
X317500Y110000D02*
X393250Y185750D01*
X317500Y259600D02*
Y310000D01*
X216500Y158600D02*
X317500Y259600D01*
D38*
X245000Y673000D02*
X262000Y690000D01*
X95000Y756250D02*
X108750Y770000D01*
X95000Y755000D02*
Y756250D01*
X430000Y790000D02*
X451485D01*
X470000Y750000D02*
Y771485D01*
X451485Y790000D02*
X470000Y771485D01*
X453000Y745400D02*
X465400D01*
X470000Y750000D01*
X410000Y750000D02*
X430000D01*
X410000Y750000D02*
X410000Y750000D01*
X500000Y650000D02*
X530000D01*
X497400Y694600D02*
X507000D01*
X493885Y691085D02*
X497400Y694600D01*
X493885Y656115D02*
Y691085D01*
Y656115D02*
X500000Y650000D01*
X550000Y750000D02*
X570000D01*
X410000Y690000D02*
X430000D01*
X390000D02*
X410000D01*
X550001Y719997D02*
Y729993D01*
Y710002D02*
Y719997D01*
X415000Y720000D02*
Y730000D01*
Y710000D02*
Y720000D01*
X550000Y710000D02*
X550001Y710002D01*
Y729993D02*
X550003Y729995D01*
X507000Y707300D02*
X528000D01*
X530000Y709300D01*
Y710000D01*
X507000Y732700D02*
X528003D01*
X530003Y730700D01*
Y729995D02*
Y730700D01*
X437000Y707300D02*
X453000D01*
X435000Y709300D02*
X437000Y707300D01*
X435000Y709300D02*
Y710000D01*
X437000Y732700D02*
X453000D01*
X435000Y730700D02*
X437000Y732700D01*
X435000Y730000D02*
Y730700D01*
X430000Y770000D02*
X431250D01*
X443150Y758100D01*
X453000D01*
X410000Y770000D02*
X410000Y770000D01*
X430000D01*
X516850Y758100D02*
X528750Y770000D01*
X507000Y758100D02*
X516850D01*
X435850Y745400D02*
X453000D01*
X431250Y750000D02*
X435850Y745400D01*
X430000Y750000D02*
X431250D01*
X530000Y750000D02*
X550000D01*
X507000Y745400D02*
X524150D01*
X528750Y750000D01*
X530000D01*
Y690000D02*
X550000D01*
X507000Y694600D02*
X524150D01*
X528750Y690000D01*
X530000D01*
X507000Y681900D02*
X516850D01*
X528750Y670000D01*
X530000D01*
X550000D01*
X430000D02*
X431250D01*
X443150Y681900D01*
X453000D01*
X410000Y670000D02*
X430000D01*
X435850Y694600D02*
X453000D01*
X431250Y690000D02*
X435850Y694600D01*
X430000Y690000D02*
X431250D01*
D39*
X80000Y674500D02*
X243500D01*
X80000Y904500D02*
X147500D01*
X745000Y568000D02*
X907500D01*
X840500Y795500D02*
X910000D01*
D40*
X970000Y709600D02*
Y760400D01*
Y823640D01*
Y640000D02*
Y709600D01*
X910000Y620000D02*
X950000D01*
X970000Y640000D01*
X910000Y850000D02*
X943640D01*
X970000Y823640D01*
X52110Y620000D02*
X80000D01*
X25750Y646360D02*
X52110Y620000D01*
Y850000D02*
X80000D01*
X25750Y823640D02*
X52110Y850000D01*
X25750Y646360D02*
Y823640D01*
D41*
X468787Y475000D02*
X596824D01*
X460000Y610000D02*
X460000Y610000D01*
X460000Y483787D02*
Y610000D01*
Y483787D02*
X468787Y475000D01*
X686824Y385000D02*
X825000D01*
X596824Y475000D02*
X686824Y385000D01*
D42*
X317500Y110000D02*
D03*
Y310000D02*
D03*
X572500Y110000D02*
D03*
Y310000D02*
D03*
Y160000D02*
D03*
Y260000D02*
D03*
X775000Y230000D02*
D03*
D43*
X575000Y720000D02*
D03*
X600400D02*
D03*
X440000Y610000D02*
D03*
X580000Y575000D02*
D03*
X276750Y440000D02*
D03*
D44*
X625800Y720000D02*
D03*
X460000Y610000D02*
D03*
X393250Y440000D02*
D03*
D45*
X580000Y595000D02*
D03*
D46*
X585000Y655000D02*
D03*
D47*
Y642300D02*
D03*
Y629600D02*
D03*
D48*
X745000Y862000D02*
D03*
Y568000D02*
D03*
X840000Y501000D02*
D03*
Y795000D02*
D03*
X915000Y33000D02*
D03*
Y327000D02*
D03*
X245000Y967000D02*
D03*
Y673000D02*
D03*
X150000Y613000D02*
D03*
Y907000D02*
D03*
X825000Y359600D02*
D03*
Y385000D02*
D03*
D49*
X725000Y230000D02*
D03*
D50*
X120000Y425000D02*
D03*
Y75000D02*
D03*
D51*
X216500Y158600D02*
D03*
X216500Y250000D02*
D03*
X216500Y341400D02*
D03*
D52*
X970000Y709600D02*
D03*
Y760400D02*
D03*
X25000Y709600D02*
D03*
Y760400D02*
D03*
X970000Y450200D02*
D03*
Y501000D02*
D03*
D53*
X80000Y795500D02*
D03*
Y850000D02*
D03*
Y904500D02*
D03*
X910000Y674500D02*
D03*
Y620000D02*
D03*
Y565500D02*
D03*
X80000Y565500D02*
D03*
Y620000D02*
D03*
Y674500D02*
D03*
X910000Y904500D02*
D03*
Y850000D02*
D03*
Y795500D02*
D03*
D54*
X825000Y334200D02*
D03*
D55*
X82000Y452000D02*
D03*
X63500Y45000D02*
D03*
X970000Y970000D02*
D03*
X988500Y933000D02*
D03*
X970000Y896000D02*
D03*
X988500Y859000D02*
D03*
Y563000D02*
D03*
X970000Y526000D02*
D03*
X988500Y489000D02*
D03*
Y415000D02*
D03*
X970000Y378000D02*
D03*
X988500Y341000D02*
D03*
X970000Y304000D02*
D03*
X988500Y267000D02*
D03*
X970000Y230000D02*
D03*
X988500Y193000D02*
D03*
X970000Y156000D02*
D03*
X988500Y119000D02*
D03*
X970000Y82000D02*
D03*
X988500Y45000D02*
D03*
X970000Y8000D02*
D03*
X933000Y970000D02*
D03*
X951500Y933000D02*
D03*
X933000Y896000D02*
D03*
Y748000D02*
D03*
Y674000D02*
D03*
X951500Y563000D02*
D03*
X933000Y526000D02*
D03*
X951500Y489000D02*
D03*
X933000Y452000D02*
D03*
X951500Y415000D02*
D03*
X933000Y378000D02*
D03*
X951500Y341000D02*
D03*
X933000Y304000D02*
D03*
X951500Y267000D02*
D03*
X933000Y230000D02*
D03*
X951500Y193000D02*
D03*
X933000Y156000D02*
D03*
X951500Y119000D02*
D03*
X933000Y82000D02*
D03*
X951500Y45000D02*
D03*
X933000Y8000D02*
D03*
X896000Y970000D02*
D03*
X914500Y933000D02*
D03*
X896000Y748000D02*
D03*
Y526000D02*
D03*
X914500Y489000D02*
D03*
X896000Y452000D02*
D03*
X914500Y415000D02*
D03*
X896000Y378000D02*
D03*
X914500Y267000D02*
D03*
X896000Y230000D02*
D03*
X914500Y193000D02*
D03*
X896000Y156000D02*
D03*
X914500Y119000D02*
D03*
X896000Y82000D02*
D03*
Y8000D02*
D03*
X859000Y970000D02*
D03*
X877500Y933000D02*
D03*
Y859000D02*
D03*
X859000Y748000D02*
D03*
X877500Y711000D02*
D03*
X859000Y674000D02*
D03*
X877500Y637000D02*
D03*
X859000Y600000D02*
D03*
Y526000D02*
D03*
X877500Y489000D02*
D03*
X859000Y452000D02*
D03*
X877500Y415000D02*
D03*
X859000Y378000D02*
D03*
X877500Y341000D02*
D03*
X859000Y304000D02*
D03*
Y230000D02*
D03*
X877500Y193000D02*
D03*
X859000Y156000D02*
D03*
X877500Y119000D02*
D03*
X859000Y82000D02*
D03*
Y8000D02*
D03*
X822000Y970000D02*
D03*
X840500Y933000D02*
D03*
X822000Y896000D02*
D03*
Y822000D02*
D03*
Y748000D02*
D03*
X840500Y711000D02*
D03*
X822000Y674000D02*
D03*
X840500Y637000D02*
D03*
X822000Y600000D02*
D03*
Y526000D02*
D03*
Y452000D02*
D03*
X840500Y415000D02*
D03*
X822000Y304000D02*
D03*
Y230000D02*
D03*
X840500Y193000D02*
D03*
X822000Y156000D02*
D03*
X840500Y119000D02*
D03*
X822000Y82000D02*
D03*
Y8000D02*
D03*
X785000Y970000D02*
D03*
X803500Y933000D02*
D03*
X785000Y896000D02*
D03*
X803500Y859000D02*
D03*
Y785000D02*
D03*
Y711000D02*
D03*
X785000Y674000D02*
D03*
X803500Y637000D02*
D03*
X785000Y600000D02*
D03*
Y526000D02*
D03*
X803500Y489000D02*
D03*
X785000Y452000D02*
D03*
X803500Y415000D02*
D03*
Y341000D02*
D03*
Y193000D02*
D03*
X785000Y156000D02*
D03*
X803500Y119000D02*
D03*
X785000Y82000D02*
D03*
Y8000D02*
D03*
X748000Y970000D02*
D03*
X766500Y933000D02*
D03*
X748000Y896000D02*
D03*
X766500Y859000D02*
D03*
X748000Y822000D02*
D03*
X766500Y711000D02*
D03*
X748000Y674000D02*
D03*
X766500Y637000D02*
D03*
X748000Y600000D02*
D03*
Y526000D02*
D03*
X766500Y489000D02*
D03*
X748000Y452000D02*
D03*
X766500Y415000D02*
D03*
Y341000D02*
D03*
X748000Y304000D02*
D03*
Y230000D02*
D03*
X766500Y193000D02*
D03*
X748000Y156000D02*
D03*
X766500Y119000D02*
D03*
Y45000D02*
D03*
X748000Y8000D02*
D03*
X711000Y970000D02*
D03*
X729500Y933000D02*
D03*
X711000Y896000D02*
D03*
X729500Y859000D02*
D03*
X711000Y822000D02*
D03*
X729500Y785000D02*
D03*
X711000Y674000D02*
D03*
X729500Y637000D02*
D03*
X711000Y526000D02*
D03*
X729500Y489000D02*
D03*
X711000Y452000D02*
D03*
X729500Y415000D02*
D03*
Y341000D02*
D03*
X711000Y304000D02*
D03*
Y230000D02*
D03*
X729500Y193000D02*
D03*
X711000Y156000D02*
D03*
Y82000D02*
D03*
X729500Y45000D02*
D03*
X711000Y8000D02*
D03*
X674000Y970000D02*
D03*
X692500Y933000D02*
D03*
X674000Y896000D02*
D03*
X692500Y859000D02*
D03*
X674000Y822000D02*
D03*
X692500Y785000D02*
D03*
Y711000D02*
D03*
Y637000D02*
D03*
X674000Y600000D02*
D03*
X692500Y563000D02*
D03*
X674000Y526000D02*
D03*
X692500Y489000D02*
D03*
X674000Y452000D02*
D03*
X692500Y415000D02*
D03*
Y341000D02*
D03*
X674000Y304000D02*
D03*
Y230000D02*
D03*
Y82000D02*
D03*
Y8000D02*
D03*
X637000Y970000D02*
D03*
X655500Y933000D02*
D03*
X637000Y896000D02*
D03*
X655500Y859000D02*
D03*
X637000Y822000D02*
D03*
X655500Y785000D02*
D03*
Y711000D02*
D03*
Y637000D02*
D03*
X637000Y600000D02*
D03*
X655500Y563000D02*
D03*
X637000Y526000D02*
D03*
X655500Y489000D02*
D03*
X637000Y230000D02*
D03*
X655500Y193000D02*
D03*
Y119000D02*
D03*
X637000Y82000D02*
D03*
X655500Y45000D02*
D03*
X637000Y8000D02*
D03*
X600000Y970000D02*
D03*
X618500Y933000D02*
D03*
X600000Y896000D02*
D03*
X618500Y859000D02*
D03*
X600000Y822000D02*
D03*
X618500Y785000D02*
D03*
Y637000D02*
D03*
X600000Y600000D02*
D03*
X618500Y563000D02*
D03*
X600000Y526000D02*
D03*
X618500Y489000D02*
D03*
X600000Y452000D02*
D03*
X618500Y415000D02*
D03*
X600000Y378000D02*
D03*
X618500Y341000D02*
D03*
X600000Y8000D02*
D03*
X563000Y970000D02*
D03*
X581500Y933000D02*
D03*
X563000Y896000D02*
D03*
X581500Y859000D02*
D03*
X563000Y822000D02*
D03*
X581500Y785000D02*
D03*
X563000Y526000D02*
D03*
X581500Y489000D02*
D03*
X563000Y452000D02*
D03*
X581500Y415000D02*
D03*
X563000Y378000D02*
D03*
X581500Y341000D02*
D03*
X563000Y230000D02*
D03*
X581500Y193000D02*
D03*
X563000Y82000D02*
D03*
X581500Y45000D02*
D03*
X563000Y8000D02*
D03*
X526000Y970000D02*
D03*
X544500Y933000D02*
D03*
X526000Y896000D02*
D03*
X544500Y859000D02*
D03*
X526000Y822000D02*
D03*
X544500Y785000D02*
D03*
X526000Y600000D02*
D03*
X544500Y563000D02*
D03*
X526000Y526000D02*
D03*
X544500Y489000D02*
D03*
X526000Y452000D02*
D03*
X544500Y415000D02*
D03*
X526000Y378000D02*
D03*
X544500Y341000D02*
D03*
X526000Y304000D02*
D03*
X544500Y267000D02*
D03*
X526000Y230000D02*
D03*
X544500Y193000D02*
D03*
X526000Y156000D02*
D03*
X544500Y119000D02*
D03*
X526000Y82000D02*
D03*
X544500Y45000D02*
D03*
X526000Y8000D02*
D03*
X489000Y970000D02*
D03*
X507500Y933000D02*
D03*
X489000Y896000D02*
D03*
X507500Y859000D02*
D03*
X489000Y822000D02*
D03*
X507500Y785000D02*
D03*
X489000Y748000D02*
D03*
X507500Y637000D02*
D03*
X489000Y600000D02*
D03*
X507500Y563000D02*
D03*
X489000Y526000D02*
D03*
X507500Y489000D02*
D03*
X489000Y452000D02*
D03*
X507500Y415000D02*
D03*
X489000Y378000D02*
D03*
X507500Y341000D02*
D03*
X489000Y304000D02*
D03*
X507500Y267000D02*
D03*
X489000Y230000D02*
D03*
X507500Y193000D02*
D03*
X489000Y156000D02*
D03*
X507500Y119000D02*
D03*
X489000Y82000D02*
D03*
X507500Y45000D02*
D03*
X489000Y8000D02*
D03*
X452000Y970000D02*
D03*
X470500Y933000D02*
D03*
X452000Y896000D02*
D03*
X470500Y859000D02*
D03*
X452000Y822000D02*
D03*
X470500Y785000D02*
D03*
Y637000D02*
D03*
X452000Y452000D02*
D03*
X470500Y415000D02*
D03*
X452000Y378000D02*
D03*
X470500Y341000D02*
D03*
X452000Y304000D02*
D03*
X470500Y267000D02*
D03*
X452000Y230000D02*
D03*
X470500Y193000D02*
D03*
X452000Y156000D02*
D03*
X470500Y119000D02*
D03*
X452000Y82000D02*
D03*
X470500Y45000D02*
D03*
X452000Y8000D02*
D03*
X415000Y970000D02*
D03*
X433500Y933000D02*
D03*
X415000Y896000D02*
D03*
X433500Y859000D02*
D03*
X415000Y822000D02*
D03*
X433500Y637000D02*
D03*
X415000Y600000D02*
D03*
X433500Y563000D02*
D03*
X415000Y526000D02*
D03*
X433500Y489000D02*
D03*
X415000Y8000D02*
D03*
X378000Y970000D02*
D03*
X396500Y933000D02*
D03*
X378000Y896000D02*
D03*
X396500Y859000D02*
D03*
X378000Y822000D02*
D03*
Y748000D02*
D03*
X396500Y711000D02*
D03*
Y637000D02*
D03*
X378000Y600000D02*
D03*
X396500Y563000D02*
D03*
X378000Y526000D02*
D03*
X396500Y489000D02*
D03*
X378000Y8000D02*
D03*
X341000Y970000D02*
D03*
X359500Y933000D02*
D03*
X341000Y896000D02*
D03*
X359500Y859000D02*
D03*
X341000Y822000D02*
D03*
Y748000D02*
D03*
X359500Y711000D02*
D03*
Y637000D02*
D03*
X341000Y600000D02*
D03*
X359500Y563000D02*
D03*
X341000Y526000D02*
D03*
X359500Y489000D02*
D03*
X341000Y8000D02*
D03*
X304000Y970000D02*
D03*
X322500Y933000D02*
D03*
X304000Y896000D02*
D03*
X322500Y859000D02*
D03*
X304000Y822000D02*
D03*
Y748000D02*
D03*
X322500Y711000D02*
D03*
X304000Y674000D02*
D03*
X322500Y637000D02*
D03*
X304000Y600000D02*
D03*
X322500Y563000D02*
D03*
X304000Y526000D02*
D03*
X322500Y489000D02*
D03*
X304000Y8000D02*
D03*
X267000Y970000D02*
D03*
X285500Y933000D02*
D03*
X267000Y896000D02*
D03*
X285500Y859000D02*
D03*
X267000Y822000D02*
D03*
Y748000D02*
D03*
X285500Y711000D02*
D03*
Y563000D02*
D03*
X267000Y526000D02*
D03*
X285500Y489000D02*
D03*
X267000Y8000D02*
D03*
X248500Y933000D02*
D03*
X230000Y896000D02*
D03*
X248500Y859000D02*
D03*
X230000Y822000D02*
D03*
Y748000D02*
D03*
X248500Y711000D02*
D03*
Y637000D02*
D03*
X230000Y600000D02*
D03*
X248500Y563000D02*
D03*
X230000Y526000D02*
D03*
X248500Y489000D02*
D03*
X230000Y8000D02*
D03*
X193000Y970000D02*
D03*
X211500Y933000D02*
D03*
X193000Y896000D02*
D03*
X211500Y859000D02*
D03*
X193000Y822000D02*
D03*
Y748000D02*
D03*
X211500Y711000D02*
D03*
Y637000D02*
D03*
X193000Y600000D02*
D03*
Y526000D02*
D03*
X211500Y489000D02*
D03*
X193000Y452000D02*
D03*
X211500Y45000D02*
D03*
X193000Y8000D02*
D03*
X156000Y970000D02*
D03*
X174500Y933000D02*
D03*
Y859000D02*
D03*
X156000Y748000D02*
D03*
X174500Y711000D02*
D03*
Y637000D02*
D03*
X156000Y526000D02*
D03*
X174500Y489000D02*
D03*
X156000Y452000D02*
D03*
X174500Y415000D02*
D03*
X156000Y82000D02*
D03*
X174500Y45000D02*
D03*
X156000Y8000D02*
D03*
X119000Y970000D02*
D03*
X137500Y859000D02*
D03*
X119000Y822000D02*
D03*
X137500Y785000D02*
D03*
X119000Y748000D02*
D03*
X137500Y711000D02*
D03*
Y637000D02*
D03*
X119000Y600000D02*
D03*
Y526000D02*
D03*
Y8000D02*
D03*
X82000Y970000D02*
D03*
X100500Y785000D02*
D03*
Y711000D02*
D03*
X82000Y526000D02*
D03*
X100500Y489000D02*
D03*
Y415000D02*
D03*
X82000Y8000D02*
D03*
X45000Y970000D02*
D03*
X63500Y933000D02*
D03*
X45000Y896000D02*
D03*
X63500Y711000D02*
D03*
X45000Y526000D02*
D03*
X63500Y489000D02*
D03*
X45000Y452000D02*
D03*
Y378000D02*
D03*
Y304000D02*
D03*
Y230000D02*
D03*
Y156000D02*
D03*
Y82000D02*
D03*
Y8000D02*
D03*
X8000Y970000D02*
D03*
X26500Y933000D02*
D03*
X8000Y896000D02*
D03*
Y600000D02*
D03*
X26500Y563000D02*
D03*
X8000Y526000D02*
D03*
X26500Y489000D02*
D03*
X8000Y452000D02*
D03*
X26500Y415000D02*
D03*
X8000Y378000D02*
D03*
X26500Y341000D02*
D03*
X8000Y304000D02*
D03*
X26500Y267000D02*
D03*
X8000Y230000D02*
D03*
X26500Y193000D02*
D03*
X8000Y156000D02*
D03*
X26500Y119000D02*
D03*
X8000Y82000D02*
D03*
X26500Y45000D02*
D03*
X8000Y8000D02*
D03*
X550001Y719997D02*
D03*
X415000Y720000D02*
D03*
M02*
