G04*
G04 #@! TF.GenerationSoftware,Altium Limited,Altium Designer,20.0.10 (225)*
G04*
G04 Layer_Color=8388736*
%FSLAX44Y44*%
%MOMM*%
G71*
G01*
G75*
%ADD15R,1.4000X1.1500*%
%ADD16R,1.1500X1.4000*%
%ADD17R,1.7000X0.7500*%
%ADD18C,1.7500*%
%ADD19C,1.6500*%
%ADD20R,1.6500X1.6500*%
%ADD21R,1.6500X1.6500*%
%ADD22O,2.1500X1.1500*%
%ADD23O,2.1500X1.1500*%
%ADD24C,2.1500*%
%ADD25R,1.7500X1.7500*%
%ADD26C,5.7500*%
%ADD27C,2.8000*%
%ADD28C,2.6500*%
%ADD29C,3.1500*%
%ADD30C,5.9000*%
%ADD31R,2.1500X2.1500*%
D15*
X550000Y770000D02*
D03*
Y750000D02*
D03*
X530000Y770000D02*
D03*
Y750000D02*
D03*
Y670000D02*
D03*
Y690000D02*
D03*
X550000Y670000D02*
D03*
Y690000D02*
D03*
X430000Y670000D02*
D03*
Y690000D02*
D03*
X410000D02*
D03*
Y670000D02*
D03*
X430000Y770000D02*
D03*
Y750000D02*
D03*
X410000Y770000D02*
D03*
Y750000D02*
D03*
D16*
X590000D02*
D03*
X570000D02*
D03*
X530003Y729995D02*
D03*
X550003D02*
D03*
X530000Y710000D02*
D03*
X550000D02*
D03*
X550000Y650000D02*
D03*
X530000D02*
D03*
X410000Y790000D02*
D03*
X430000D02*
D03*
X435000Y730000D02*
D03*
X415000D02*
D03*
X435000Y710000D02*
D03*
X415000D02*
D03*
X440000Y650000D02*
D03*
X460000D02*
D03*
X874997Y905005D02*
D03*
X854997D02*
D03*
X875000Y885000D02*
D03*
X855000D02*
D03*
X914994Y734997D02*
D03*
X894994D02*
D03*
X915000Y715000D02*
D03*
X895000D02*
D03*
X120000Y570000D02*
D03*
X140000D02*
D03*
X120000Y550000D02*
D03*
X140000D02*
D03*
X75000Y755000D02*
D03*
X95000D02*
D03*
X75010Y735003D02*
D03*
X95010D02*
D03*
X370000Y690000D02*
D03*
X390000D02*
D03*
D17*
X453000Y758100D02*
D03*
Y745400D02*
D03*
Y732700D02*
D03*
Y720000D02*
D03*
Y707300D02*
D03*
Y694600D02*
D03*
Y681900D02*
D03*
X507000Y758100D02*
D03*
Y745400D02*
D03*
Y732700D02*
D03*
Y720000D02*
D03*
Y707300D02*
D03*
Y694600D02*
D03*
Y681900D02*
D03*
D18*
X317500Y110000D02*
D03*
Y310000D02*
D03*
X572500Y110000D02*
D03*
Y310000D02*
D03*
Y160000D02*
D03*
Y260000D02*
D03*
X775000Y230000D02*
D03*
D19*
X575000Y720000D02*
D03*
X600400D02*
D03*
X440000Y610000D02*
D03*
X580000Y575000D02*
D03*
X276750Y440000D02*
D03*
D20*
X625800Y720000D02*
D03*
X460000Y610000D02*
D03*
X393250Y440000D02*
D03*
D21*
X580000Y595000D02*
D03*
D22*
X585000Y655000D02*
D03*
D23*
Y642300D02*
D03*
Y629600D02*
D03*
D24*
X745000Y862000D02*
D03*
Y568000D02*
D03*
X840000Y501000D02*
D03*
Y795000D02*
D03*
X915000Y33000D02*
D03*
Y327000D02*
D03*
X245000Y967000D02*
D03*
Y673000D02*
D03*
X150000Y613000D02*
D03*
Y907000D02*
D03*
X825000Y359600D02*
D03*
Y385000D02*
D03*
D25*
X725000Y230000D02*
D03*
D26*
X120000Y425000D02*
D03*
Y75000D02*
D03*
D27*
X216500Y158600D02*
D03*
X216500Y250000D02*
D03*
X216500Y341400D02*
D03*
D28*
X970000Y709600D02*
D03*
Y760400D02*
D03*
X25000Y709600D02*
D03*
Y760400D02*
D03*
X970000Y450200D02*
D03*
Y501000D02*
D03*
D29*
X80000Y795500D02*
D03*
Y850000D02*
D03*
Y904500D02*
D03*
X910000Y674500D02*
D03*
Y620000D02*
D03*
Y565500D02*
D03*
X80000Y565500D02*
D03*
Y620000D02*
D03*
Y674500D02*
D03*
X910000Y904500D02*
D03*
Y850000D02*
D03*
Y795500D02*
D03*
D30*
X656720Y359600D02*
D03*
D31*
X825000Y334200D02*
D03*
M02*
