G04*
G04 #@! TF.GenerationSoftware,Altium Limited,Altium Designer,20.0.10 (225)*
G04*
G04 Layer_Color=32896*
%FSLAX44Y44*%
%MOMM*%
G71*
G01*
G75*
%ADD10C,0.2000*%
%ADD13C,0.2500*%
G36*
X920091Y948201D02*
X920220Y948164D01*
X920294Y948090D01*
X920368Y948034D01*
X920424Y947960D01*
X920461Y947886D01*
X920480Y947849D01*
Y947831D01*
X922590Y940480D01*
Y940387D01*
Y940350D01*
Y940331D01*
X922572Y940165D01*
X922516Y940035D01*
X922424Y939942D01*
X922331Y939887D01*
X922239Y939850D01*
X922146Y939813D01*
X918906D01*
Y938221D01*
X918887Y938054D01*
X918832Y937924D01*
X918739Y937832D01*
X918646Y937776D01*
X918554Y937739D01*
X918461Y937702D01*
X918387D01*
X918202Y937720D01*
X918072Y937776D01*
X917980Y937869D01*
X917924Y937961D01*
X917869Y938054D01*
X917850Y938146D01*
Y938202D01*
Y938221D01*
Y939813D01*
X916813D01*
X916628Y939831D01*
X916498Y939887D01*
X916406Y939980D01*
X916350Y940072D01*
X916295Y940165D01*
X916276Y940257D01*
Y940313D01*
Y940331D01*
X916295Y940517D01*
X916350Y940646D01*
X916443Y940739D01*
X916535Y940794D01*
X916647Y940850D01*
X916721Y940868D01*
X917850D01*
Y942442D01*
X917869Y942609D01*
X917924Y942738D01*
X918017Y942831D01*
X918109Y942905D01*
X918221Y942942D01*
X918295Y942961D01*
X918387D01*
X918554Y942942D01*
X918683Y942887D01*
X918776Y942794D01*
X918832Y942701D01*
X918869Y942609D01*
X918906Y942516D01*
Y942461D01*
Y942442D01*
Y940868D01*
X921387D01*
X919461Y947534D01*
X919443Y947645D01*
Y947664D01*
Y947682D01*
X919461Y947868D01*
X919517Y947997D01*
X919609Y948090D01*
X919702Y948145D01*
X919794Y948201D01*
X919887Y948219D01*
X919961D01*
X920091Y948201D01*
D02*
G37*
G36*
X940163D02*
X940292Y948145D01*
X940385Y948053D01*
X940441Y947960D01*
X940478Y947849D01*
X940515Y947775D01*
Y947701D01*
Y947682D01*
X940496Y947571D01*
X940478Y947534D01*
Y947516D01*
X937348Y938091D01*
X937274Y937961D01*
X937200Y937869D01*
X937126Y937795D01*
X937033Y937758D01*
X936959Y937720D01*
X936885Y937702D01*
X936830D01*
X936700Y937720D01*
X936589Y937758D01*
X936496Y937832D01*
X936422Y937906D01*
X936330Y938035D01*
X936311Y938072D01*
Y938091D01*
X933163Y947516D01*
X933145Y947627D01*
Y947664D01*
Y947682D01*
X933163Y947868D01*
X933219Y947997D01*
X933312Y948090D01*
X933404Y948145D01*
X933497Y948201D01*
X933589Y948219D01*
X933663D01*
X933793Y948201D01*
X933904Y948164D01*
X933997Y948108D01*
X934052Y948034D01*
X934145Y947905D01*
X934163Y947868D01*
Y947849D01*
X936830Y939887D01*
X939478Y947849D01*
X939533Y947979D01*
X939607Y948071D01*
X939700Y948127D01*
X939774Y948182D01*
X939848Y948201D01*
X939922Y948219D01*
X939977D01*
X940163Y948201D01*
D02*
G37*
G36*
X930682Y948219D02*
X930812Y948164D01*
X930904Y948071D01*
X930960Y947979D01*
X930997Y947868D01*
X931034Y947794D01*
Y947719D01*
Y947701D01*
X931015Y947534D01*
X930941Y947405D01*
X930867Y947312D01*
X930756Y947257D01*
X930664Y947219D01*
X930571Y947182D01*
X928386D01*
Y938221D01*
X928368Y938054D01*
X928312Y937924D01*
X928220Y937832D01*
X928127Y937776D01*
X928034Y937739D01*
X927942Y937702D01*
X927868D01*
X927682Y937720D01*
X927553Y937776D01*
X927460Y937869D01*
X927405Y937961D01*
X927349Y938054D01*
X927331Y938146D01*
Y938202D01*
Y938221D01*
Y947182D01*
X925238D01*
X925053Y947201D01*
X924924Y947257D01*
X924831Y947349D01*
X924775Y947442D01*
X924720Y947534D01*
X924701Y947627D01*
Y947682D01*
Y947701D01*
X924720Y947886D01*
X924775Y948016D01*
X924868Y948108D01*
X924961Y948164D01*
X925072Y948219D01*
X925146Y948238D01*
X930497D01*
X930682Y948219D01*
D02*
G37*
G36*
X940163Y718077D02*
X940292Y718021D01*
X940385Y717929D01*
X940441Y717836D01*
X940478Y717725D01*
X940515Y717651D01*
Y717577D01*
Y717559D01*
X940496Y717447D01*
X940478Y717410D01*
Y717392D01*
X937348Y707967D01*
X937274Y707837D01*
X937200Y707745D01*
X937126Y707671D01*
X937033Y707634D01*
X936959Y707597D01*
X936885Y707578D01*
X936830D01*
X936700Y707597D01*
X936589Y707634D01*
X936496Y707708D01*
X936422Y707782D01*
X936330Y707911D01*
X936311Y707948D01*
Y707967D01*
X933163Y717392D01*
X933145Y717503D01*
Y717540D01*
Y717559D01*
X933163Y717744D01*
X933219Y717873D01*
X933312Y717966D01*
X933404Y718021D01*
X933497Y718077D01*
X933589Y718095D01*
X933663D01*
X933793Y718077D01*
X933904Y718040D01*
X933997Y717984D01*
X934052Y717910D01*
X934145Y717781D01*
X934163Y717744D01*
Y717725D01*
X936830Y709763D01*
X939478Y717725D01*
X939533Y717855D01*
X939607Y717947D01*
X939700Y718003D01*
X939774Y718058D01*
X939848Y718077D01*
X939922Y718095D01*
X939977D01*
X940163Y718077D01*
D02*
G37*
G36*
X930682Y718095D02*
X930812Y718040D01*
X930904Y717947D01*
X930960Y717855D01*
X930997Y717744D01*
X931034Y717670D01*
Y717596D01*
Y717577D01*
X931015Y717410D01*
X930941Y717281D01*
X930867Y717188D01*
X930756Y717133D01*
X930664Y717095D01*
X930571Y717058D01*
X928386D01*
Y708096D01*
X928368Y707930D01*
X928312Y707800D01*
X928220Y707708D01*
X928127Y707652D01*
X928034Y707615D01*
X927942Y707578D01*
X927868D01*
X927682Y707597D01*
X927553Y707652D01*
X927460Y707745D01*
X927405Y707837D01*
X927349Y707930D01*
X927331Y708022D01*
Y708078D01*
Y708096D01*
Y717058D01*
X925238D01*
X925053Y717077D01*
X924924Y717133D01*
X924831Y717225D01*
X924775Y717318D01*
X924720Y717410D01*
X924701Y717503D01*
Y717559D01*
Y717577D01*
X924720Y717762D01*
X924775Y717892D01*
X924868Y717984D01*
X924961Y718040D01*
X925072Y718095D01*
X925146Y718114D01*
X930497D01*
X930682Y718095D01*
D02*
G37*
G36*
X922257D02*
X922387Y718040D01*
X922479Y717947D01*
X922535Y717855D01*
X922572Y717744D01*
X922609Y717670D01*
Y717596D01*
Y717577D01*
X922590Y717410D01*
X922516Y717281D01*
X922442Y717188D01*
X922331Y717133D01*
X922239Y717095D01*
X922146Y717058D01*
X919980D01*
X919739Y717040D01*
X919517Y716984D01*
X919332Y716910D01*
X919165Y716818D01*
X919035Y716725D01*
X918924Y716651D01*
X918869Y716596D01*
X918850Y716577D01*
X918702Y716392D01*
X918591Y716207D01*
X918498Y716022D01*
X918443Y715855D01*
X918406Y715688D01*
X918387Y715577D01*
Y715503D01*
Y715466D01*
X918406Y715225D01*
X918461Y715003D01*
X918535Y714818D01*
X918609Y714651D01*
X918702Y714522D01*
X918776Y714429D01*
X918832Y714355D01*
X918850Y714337D01*
X919035Y714188D01*
X919220Y714077D01*
X919406Y714003D01*
X919591Y713948D01*
X919739Y713911D01*
X919868Y713892D01*
X921035D01*
X921202Y713874D01*
X921331Y713818D01*
X921424Y713726D01*
X921479Y713633D01*
X921516Y713522D01*
X921553Y713448D01*
Y713374D01*
Y713355D01*
X921535Y713188D01*
X921479Y713059D01*
X921387Y712966D01*
X921294Y712911D01*
X921202Y712874D01*
X921109Y712837D01*
X919980D01*
X919739Y712818D01*
X919517Y712763D01*
X919332Y712689D01*
X919165Y712615D01*
X919035Y712522D01*
X918924Y712448D01*
X918869Y712392D01*
X918850Y712374D01*
X918702Y712189D01*
X918591Y712003D01*
X918498Y711818D01*
X918443Y711633D01*
X918406Y711485D01*
X918387Y711355D01*
Y711281D01*
Y711244D01*
Y710207D01*
X918406Y709967D01*
X918461Y709744D01*
X918535Y709559D01*
X918609Y709393D01*
X918702Y709263D01*
X918776Y709170D01*
X918832Y709096D01*
X918850Y709078D01*
X919035Y708930D01*
X919220Y708819D01*
X919406Y708745D01*
X919591Y708689D01*
X919739Y708652D01*
X919868Y708633D01*
X922072D01*
X922257Y708615D01*
X922387Y708559D01*
X922479Y708467D01*
X922535Y708374D01*
X922572Y708263D01*
X922609Y708189D01*
Y708115D01*
Y708096D01*
X922590Y707930D01*
X922516Y707800D01*
X922442Y707708D01*
X922331Y707652D01*
X922239Y707615D01*
X922146Y707578D01*
X919980D01*
X919591Y707615D01*
X919220Y707689D01*
X918906Y707819D01*
X918628Y707967D01*
X918406Y708096D01*
X918239Y708226D01*
X918147Y708300D01*
X918109Y708337D01*
X917850Y708633D01*
X917665Y708967D01*
X917517Y709263D01*
X917424Y709559D01*
X917369Y709818D01*
X917350Y710022D01*
X917332Y710096D01*
Y710152D01*
Y710189D01*
Y710207D01*
Y711244D01*
X917350Y711485D01*
X917369Y711707D01*
X917424Y711929D01*
X917498Y712133D01*
X917665Y712485D01*
X917850Y712800D01*
X918054Y713040D01*
X918221Y713207D01*
X918295Y713281D01*
X918350Y713318D01*
X918369Y713355D01*
X918387D01*
X918202Y713503D01*
X918035Y713670D01*
X917906Y713855D01*
X917776Y714022D01*
X917665Y714207D01*
X917591Y714374D01*
X917461Y714707D01*
X917387Y715003D01*
X917369Y715133D01*
X917350Y715244D01*
X917332Y715337D01*
Y715411D01*
Y715448D01*
Y715466D01*
X917369Y715855D01*
X917461Y716225D01*
X917572Y716540D01*
X917721Y716818D01*
X917869Y717040D01*
X917980Y717207D01*
X918072Y717299D01*
X918109Y717336D01*
X918406Y717596D01*
X918720Y717781D01*
X919035Y717929D01*
X919332Y718021D01*
X919591Y718077D01*
X919794Y718095D01*
X919868Y718114D01*
X922072D01*
X922257Y718095D01*
D02*
G37*
G36*
X85756Y718058D02*
X85886Y717984D01*
X85978Y717910D01*
X85997Y717892D01*
X86016Y717873D01*
X88071Y715818D01*
X88163Y715707D01*
X88201Y715577D01*
X88219Y715485D01*
Y715466D01*
Y715448D01*
X88201Y715281D01*
X88145Y715151D01*
X88052Y715059D01*
X87960Y715003D01*
X87867Y714966D01*
X87775Y714929D01*
X87701D01*
X87552Y714948D01*
X87423Y715003D01*
X87349Y715059D01*
X87330Y715077D01*
X86108Y716299D01*
Y708096D01*
X86090Y707930D01*
X86034Y707800D01*
X85941Y707708D01*
X85849Y707652D01*
X85756Y707615D01*
X85664Y707578D01*
X85590D01*
X85405Y707597D01*
X85275Y707652D01*
X85182Y707745D01*
X85127Y707837D01*
X85071Y707930D01*
X85053Y708022D01*
Y708078D01*
Y708096D01*
Y717559D01*
X85071Y717744D01*
X85127Y717873D01*
X85219Y717966D01*
X85312Y718021D01*
X85423Y718077D01*
X85497Y718095D01*
X85664D01*
X85756Y718058D01*
D02*
G37*
G36*
X105773Y718077D02*
X105902Y718021D01*
X105995Y717929D01*
X106051Y717836D01*
X106088Y717725D01*
X106124Y717651D01*
Y717577D01*
Y717559D01*
X106106Y717447D01*
X106088Y717410D01*
Y717392D01*
X102958Y707967D01*
X102884Y707837D01*
X102810Y707745D01*
X102736Y707671D01*
X102643Y707634D01*
X102569Y707597D01*
X102495Y707578D01*
X102440D01*
X102310Y707597D01*
X102199Y707634D01*
X102106Y707708D01*
X102032Y707782D01*
X101940Y707911D01*
X101921Y707948D01*
Y707967D01*
X98773Y717392D01*
X98755Y717503D01*
Y717540D01*
Y717559D01*
X98773Y717744D01*
X98829Y717873D01*
X98922Y717966D01*
X99014Y718021D01*
X99107Y718077D01*
X99199Y718095D01*
X99273D01*
X99403Y718077D01*
X99514Y718040D01*
X99607Y717984D01*
X99662Y717910D01*
X99755Y717781D01*
X99773Y717744D01*
Y717725D01*
X102440Y709763D01*
X105088Y717725D01*
X105143Y717855D01*
X105217Y717947D01*
X105310Y718003D01*
X105384Y718058D01*
X105458Y718077D01*
X105532Y718095D01*
X105588D01*
X105773Y718077D01*
D02*
G37*
G36*
X96292Y718095D02*
X96422Y718040D01*
X96514Y717947D01*
X96570Y717855D01*
X96607Y717744D01*
X96644Y717670D01*
Y717596D01*
Y717577D01*
X96625Y717410D01*
X96551Y717281D01*
X96477Y717188D01*
X96366Y717133D01*
X96274Y717095D01*
X96181Y717058D01*
X93996D01*
Y708096D01*
X93978Y707930D01*
X93922Y707800D01*
X93829Y707708D01*
X93737Y707652D01*
X93644Y707615D01*
X93552Y707578D01*
X93478D01*
X93293Y707597D01*
X93163Y707652D01*
X93070Y707745D01*
X93015Y707837D01*
X92959Y707930D01*
X92941Y708022D01*
Y708078D01*
Y708096D01*
Y717058D01*
X90848D01*
X90663Y717077D01*
X90534Y717133D01*
X90441Y717225D01*
X90385Y717318D01*
X90330Y717410D01*
X90311Y717503D01*
Y717559D01*
Y717577D01*
X90330Y717762D01*
X90385Y717892D01*
X90478Y717984D01*
X90571Y718040D01*
X90682Y718095D01*
X90756Y718114D01*
X96107D01*
X96292Y718095D01*
D02*
G37*
G36*
X559130Y620212D02*
X559259Y620138D01*
X559352Y620064D01*
X559370Y620046D01*
X559389Y620027D01*
X561444Y617972D01*
X561537Y617861D01*
X561574Y617731D01*
X561592Y617639D01*
Y617620D01*
Y617602D01*
X561574Y617435D01*
X561518Y617305D01*
X561426Y617213D01*
X561333Y617157D01*
X561241Y617120D01*
X561148Y617083D01*
X561074D01*
X560926Y617102D01*
X560796Y617157D01*
X560722Y617213D01*
X560704Y617231D01*
X559482Y618453D01*
Y610251D01*
X559463Y610084D01*
X559408Y609954D01*
X559315Y609862D01*
X559222Y609806D01*
X559130Y609769D01*
X559037Y609732D01*
X558963D01*
X558778Y609751D01*
X558648Y609806D01*
X558556Y609899D01*
X558500Y609991D01*
X558445Y610084D01*
X558426Y610176D01*
Y610232D01*
Y610251D01*
Y619712D01*
X558445Y619898D01*
X558500Y620027D01*
X558593Y620120D01*
X558685Y620175D01*
X558796Y620231D01*
X558871Y620249D01*
X559037D01*
X559130Y620212D01*
D02*
G37*
G36*
X553815Y620231D02*
X553945Y620194D01*
X554019Y620120D01*
X554093Y620064D01*
X554149Y619990D01*
X554186Y619916D01*
X554204Y619879D01*
Y619861D01*
X556315Y612509D01*
Y612417D01*
Y612380D01*
Y612361D01*
X556297Y612195D01*
X556241Y612065D01*
X556148Y611973D01*
X556056Y611917D01*
X555963Y611880D01*
X555871Y611843D01*
X552630D01*
Y610251D01*
X552612Y610084D01*
X552556Y609954D01*
X552464Y609862D01*
X552371Y609806D01*
X552279Y609769D01*
X552186Y609732D01*
X552112D01*
X551927Y609751D01*
X551797Y609806D01*
X551705Y609899D01*
X551649Y609991D01*
X551594Y610084D01*
X551575Y610176D01*
Y610232D01*
Y610251D01*
Y611843D01*
X550538D01*
X550353Y611861D01*
X550223Y611917D01*
X550131Y612010D01*
X550075Y612102D01*
X550020Y612195D01*
X550001Y612287D01*
Y612343D01*
Y612361D01*
X550020Y612547D01*
X550075Y612676D01*
X550168Y612769D01*
X550260Y612824D01*
X550371Y612880D01*
X550445Y612898D01*
X551575D01*
Y614472D01*
X551594Y614639D01*
X551649Y614768D01*
X551742Y614861D01*
X551834Y614935D01*
X551945Y614972D01*
X552019Y614991D01*
X552112D01*
X552279Y614972D01*
X552408Y614917D01*
X552501Y614824D01*
X552556Y614731D01*
X552593Y614639D01*
X552630Y614546D01*
Y614491D01*
Y614472D01*
Y612898D01*
X555112D01*
X553186Y619564D01*
X553167Y619675D01*
Y619694D01*
Y619712D01*
X553186Y619898D01*
X553241Y620027D01*
X553334Y620120D01*
X553427Y620175D01*
X553519Y620231D01*
X553612Y620249D01*
X553686D01*
X553815Y620231D01*
D02*
G37*
G36*
X569647Y620249D02*
X569777Y620194D01*
X569869Y620101D01*
X569925Y620009D01*
X569962Y619898D01*
X569999Y619824D01*
Y619749D01*
Y619731D01*
Y610251D01*
X569980Y610084D01*
X569925Y609954D01*
X569832Y609862D01*
X569740Y609806D01*
X569647Y609769D01*
X569555Y609732D01*
X569481D01*
X569295Y609751D01*
X569166Y609806D01*
X569073Y609899D01*
X569018Y609991D01*
X568962Y610084D01*
X568943Y610176D01*
Y610232D01*
Y610251D01*
Y613935D01*
X566647D01*
X564685Y610010D01*
X564629Y609917D01*
X564555Y609843D01*
X564481Y609806D01*
X564407Y609769D01*
X564333Y609751D01*
X564277Y609732D01*
X564222D01*
X564074Y609751D01*
X563963Y609806D01*
X563889Y609862D01*
X563852Y609880D01*
X563759Y610010D01*
X563703Y610121D01*
X563685Y610214D01*
Y610251D01*
Y610343D01*
X563703Y610417D01*
X563722Y610473D01*
X563740Y610491D01*
X565592Y614157D01*
X565259Y614324D01*
X564962Y614509D01*
X564703Y614713D01*
X564481Y614935D01*
X564296Y615176D01*
X564148Y615417D01*
X564018Y615676D01*
X563926Y615917D01*
X563852Y616157D01*
X563777Y616380D01*
X563740Y616565D01*
X563722Y616750D01*
X563703Y616898D01*
X563685Y617009D01*
Y617083D01*
Y617102D01*
X563703Y617342D01*
X563722Y617583D01*
X563833Y618009D01*
X563981Y618398D01*
X564148Y618713D01*
X564314Y618972D01*
X564388Y619083D01*
X564463Y619175D01*
X564518Y619250D01*
X564574Y619305D01*
X564592Y619324D01*
X564611Y619342D01*
X564796Y619509D01*
X564981Y619657D01*
X565166Y619768D01*
X565351Y619879D01*
X565722Y620046D01*
X566073Y620157D01*
X566388Y620212D01*
X566518Y620249D01*
X566629D01*
X566721Y620268D01*
X569481D01*
X569647Y620249D01*
D02*
G37*
G36*
X623602Y705212D02*
X623732Y705138D01*
X623824Y705064D01*
X623843Y705046D01*
X623861Y705027D01*
X625917Y702972D01*
X626009Y702861D01*
X626046Y702731D01*
X626065Y702639D01*
Y702620D01*
Y702602D01*
X626046Y702435D01*
X625991Y702305D01*
X625898Y702213D01*
X625806Y702157D01*
X625713Y702120D01*
X625620Y702083D01*
X625546D01*
X625398Y702102D01*
X625269Y702157D01*
X625194Y702213D01*
X625176Y702231D01*
X623954Y703453D01*
Y695250D01*
X623935Y695084D01*
X623880Y694954D01*
X623787Y694862D01*
X623695Y694806D01*
X623602Y694769D01*
X623509Y694732D01*
X623435D01*
X623250Y694751D01*
X623120Y694806D01*
X623028Y694899D01*
X622972Y694991D01*
X622917Y695084D01*
X622898Y695176D01*
Y695232D01*
Y695250D01*
Y704713D01*
X622917Y704898D01*
X622972Y705027D01*
X623065Y705120D01*
X623158Y705175D01*
X623269Y705231D01*
X623343Y705249D01*
X623509D01*
X623602Y705212D01*
D02*
G37*
G36*
X634119Y705249D02*
X634249Y705194D01*
X634342Y705101D01*
X634397Y705009D01*
X634434Y704898D01*
X634471Y704824D01*
Y704750D01*
Y704731D01*
Y695250D01*
X634453Y695084D01*
X634397Y694954D01*
X634305Y694862D01*
X634212Y694806D01*
X634119Y694769D01*
X634027Y694732D01*
X633953D01*
X633768Y694751D01*
X633638Y694806D01*
X633545Y694899D01*
X633490Y694991D01*
X633434Y695084D01*
X633416Y695176D01*
Y695232D01*
Y695250D01*
Y698935D01*
X631120D01*
X629157Y695010D01*
X629101Y694917D01*
X629027Y694843D01*
X628953Y694806D01*
X628879Y694769D01*
X628805Y694751D01*
X628750Y694732D01*
X628694D01*
X628546Y694751D01*
X628435Y694806D01*
X628361Y694862D01*
X628324Y694880D01*
X628231Y695010D01*
X628176Y695121D01*
X628157Y695213D01*
Y695250D01*
Y695343D01*
X628176Y695417D01*
X628194Y695473D01*
X628213Y695491D01*
X630064Y699157D01*
X629731Y699324D01*
X629435Y699509D01*
X629175Y699713D01*
X628953Y699935D01*
X628768Y700176D01*
X628620Y700417D01*
X628490Y700676D01*
X628398Y700917D01*
X628324Y701157D01*
X628250Y701379D01*
X628213Y701565D01*
X628194Y701750D01*
X628176Y701898D01*
X628157Y702009D01*
Y702083D01*
Y702102D01*
X628176Y702342D01*
X628194Y702583D01*
X628305Y703009D01*
X628453Y703398D01*
X628620Y703713D01*
X628787Y703972D01*
X628861Y704083D01*
X628935Y704175D01*
X628990Y704250D01*
X629046Y704305D01*
X629064Y704324D01*
X629083Y704342D01*
X629268Y704509D01*
X629453Y704657D01*
X629638Y704768D01*
X629824Y704879D01*
X630194Y705046D01*
X630546Y705157D01*
X630860Y705212D01*
X630990Y705249D01*
X631101D01*
X631194Y705268D01*
X633953D01*
X634119Y705249D01*
D02*
G37*
G36*
X618436D02*
X618677Y705175D01*
X618917Y705083D01*
X619140Y704953D01*
X619325Y704805D01*
X619510Y704638D01*
X619806Y704268D01*
X620047Y703898D01*
X620139Y703713D01*
X620213Y703565D01*
X620269Y703435D01*
X620306Y703342D01*
X620343Y703268D01*
Y703250D01*
X620491Y702713D01*
X620602Y702157D01*
X620676Y701620D01*
X620732Y701102D01*
X620750Y700880D01*
X620769Y700657D01*
Y700472D01*
X620788Y700305D01*
Y700176D01*
Y700083D01*
Y700009D01*
Y699991D01*
X620769Y699306D01*
X620713Y698695D01*
X620676Y698398D01*
X620639Y698139D01*
X620602Y697880D01*
X620565Y697658D01*
X620528Y697454D01*
X620491Y697269D01*
X620454Y697102D01*
X620417Y696973D01*
X620380Y696880D01*
X620362Y696787D01*
X620343Y696750D01*
Y696732D01*
X620213Y696380D01*
X620047Y696065D01*
X619880Y695806D01*
X619714Y695584D01*
X619528Y695380D01*
X619343Y695213D01*
X619176Y695084D01*
X618991Y694991D01*
X618825Y694899D01*
X618677Y694843D01*
X618528Y694788D01*
X618399Y694769D01*
X618306Y694751D01*
X618232Y694732D01*
X618158D01*
X617880Y694751D01*
X617640Y694825D01*
X617399Y694917D01*
X617195Y695047D01*
X616992Y695195D01*
X616825Y695362D01*
X616510Y695732D01*
X616288Y696102D01*
X616195Y696269D01*
X616121Y696417D01*
X616066Y696547D01*
X616029Y696639D01*
X615992Y696713D01*
Y696732D01*
X615844Y697269D01*
X615732Y697824D01*
X615640Y698361D01*
X615584Y698880D01*
X615566Y699102D01*
X615547Y699324D01*
Y699509D01*
X615529Y699676D01*
Y699806D01*
Y699917D01*
Y699972D01*
Y699991D01*
X615547Y700676D01*
X615603Y701305D01*
X615640Y701583D01*
X615677Y701861D01*
X615714Y702102D01*
X615751Y702324D01*
X615807Y702527D01*
X615844Y702713D01*
X615881Y702879D01*
X615918Y703009D01*
X615955Y703120D01*
X615973Y703194D01*
X615992Y703231D01*
Y703250D01*
X616121Y703602D01*
X616288Y703916D01*
X616455Y704194D01*
X616621Y704416D01*
X616806Y704620D01*
X616973Y704768D01*
X617158Y704916D01*
X617325Y705009D01*
X617491Y705101D01*
X617658Y705157D01*
X617788Y705212D01*
X617917Y705231D01*
X618010Y705249D01*
X618084Y705268D01*
X618158D01*
X618436Y705249D01*
D02*
G37*
G36*
X721445Y290231D02*
X721574Y290194D01*
X721648Y290120D01*
X721723Y290064D01*
X721778Y289990D01*
X721815Y289916D01*
X721834Y289879D01*
Y289861D01*
X723945Y282509D01*
Y282417D01*
Y282380D01*
Y282361D01*
X723926Y282195D01*
X723870Y282065D01*
X723778Y281973D01*
X723685Y281917D01*
X723593Y281880D01*
X723500Y281843D01*
X720260D01*
Y280250D01*
X720241Y280084D01*
X720186Y279954D01*
X720093Y279862D01*
X720001Y279806D01*
X719908Y279769D01*
X719815Y279732D01*
X719741D01*
X719556Y279750D01*
X719426Y279806D01*
X719334Y279899D01*
X719278Y279991D01*
X719223Y280084D01*
X719204Y280176D01*
Y280232D01*
Y280250D01*
Y281843D01*
X718167D01*
X717982Y281861D01*
X717853Y281917D01*
X717760Y282010D01*
X717704Y282102D01*
X717649Y282195D01*
X717630Y282287D01*
Y282343D01*
Y282361D01*
X717649Y282547D01*
X717704Y282676D01*
X717797Y282769D01*
X717890Y282824D01*
X718001Y282880D01*
X718075Y282898D01*
X719204D01*
Y284472D01*
X719223Y284639D01*
X719278Y284769D01*
X719371Y284861D01*
X719464Y284935D01*
X719575Y284972D01*
X719649Y284991D01*
X719741D01*
X719908Y284972D01*
X720038Y284917D01*
X720130Y284824D01*
X720186Y284732D01*
X720223Y284639D01*
X720260Y284546D01*
Y284491D01*
Y284472D01*
Y282898D01*
X722741D01*
X720815Y289564D01*
X720797Y289675D01*
Y289694D01*
Y289713D01*
X720815Y289898D01*
X720871Y290027D01*
X720963Y290120D01*
X721056Y290175D01*
X721149Y290231D01*
X721241Y290250D01*
X721315D01*
X721445Y290231D01*
D02*
G37*
G36*
X732018Y290250D02*
X732147Y290194D01*
X732240Y290101D01*
X732296Y290009D01*
X732333Y289898D01*
X732370Y289824D01*
Y289750D01*
Y289731D01*
Y280250D01*
X732351Y280084D01*
X732296Y279954D01*
X732203Y279862D01*
X732110Y279806D01*
X732018Y279769D01*
X731925Y279732D01*
X728703D01*
X728315Y279769D01*
X727944Y279843D01*
X727629Y279973D01*
X727352Y280121D01*
X727129Y280250D01*
X726963Y280380D01*
X726870Y280454D01*
X726833Y280491D01*
X726574Y280788D01*
X726389Y281121D01*
X726241Y281417D01*
X726148Y281713D01*
X726093Y281973D01*
X726074Y282176D01*
X726055Y282250D01*
Y282306D01*
Y282343D01*
Y282361D01*
Y287620D01*
X726093Y288027D01*
X726185Y288379D01*
X726296Y288694D01*
X726444Y288972D01*
X726592Y289194D01*
X726703Y289361D01*
X726796Y289453D01*
X726833Y289490D01*
X727129Y289750D01*
X727444Y289935D01*
X727759Y290083D01*
X728055Y290175D01*
X728315Y290231D01*
X728518Y290250D01*
X728592Y290268D01*
X731851D01*
X732018Y290250D01*
D02*
G37*
G36*
X721102Y65250D02*
X721380Y65194D01*
X721639Y65101D01*
X721880Y64972D01*
X722102Y64824D01*
X722324Y64657D01*
X722510Y64490D01*
X722695Y64324D01*
X722843Y64138D01*
X722991Y63972D01*
X723102Y63805D01*
X723195Y63657D01*
X723287Y63546D01*
X723343Y63435D01*
X723361Y63379D01*
X723380Y63361D01*
X723417Y63287D01*
X723435Y63231D01*
Y63176D01*
Y63157D01*
X723417Y62972D01*
X723343Y62842D01*
X723269Y62750D01*
X723158Y62694D01*
X723065Y62657D01*
X722972Y62620D01*
X722898D01*
X722787Y62639D01*
X722695Y62657D01*
X722565Y62750D01*
X722473Y62842D01*
X722454Y62861D01*
Y62879D01*
X722306Y63120D01*
X722158Y63324D01*
X722028Y63490D01*
X721880Y63657D01*
X721732Y63787D01*
X721602Y63879D01*
X721473Y63972D01*
X721343Y64046D01*
X721121Y64138D01*
X720954Y64194D01*
X720843Y64212D01*
X720806D01*
X720565Y64194D01*
X720343Y64138D01*
X720158Y64064D01*
X719991Y63990D01*
X719862Y63898D01*
X719751Y63824D01*
X719695Y63768D01*
X719677Y63750D01*
X719528Y63565D01*
X719417Y63379D01*
X719325Y63194D01*
X719269Y63009D01*
X719232Y62861D01*
X719213Y62731D01*
Y62657D01*
Y62620D01*
X719232Y62453D01*
X719251Y62305D01*
X719288Y62157D01*
X719343Y62028D01*
X719399Y61916D01*
X719436Y61824D01*
X719454Y61768D01*
X719473Y61750D01*
X723343Y55547D01*
X723398Y55454D01*
X723417Y55343D01*
X723435Y55287D01*
Y55251D01*
X723417Y55084D01*
X723343Y54954D01*
X723269Y54862D01*
X723158Y54806D01*
X723065Y54769D01*
X722972Y54732D01*
X718695D01*
X718510Y54751D01*
X718380Y54806D01*
X718288Y54899D01*
X718232Y54991D01*
X718177Y55084D01*
X718158Y55176D01*
Y55232D01*
Y55251D01*
X718177Y55436D01*
X718232Y55565D01*
X718325Y55658D01*
X718417Y55713D01*
X718528Y55769D01*
X718603Y55788D01*
X721954D01*
X718640Y61102D01*
X718473Y61398D01*
X718362Y61676D01*
X718269Y61916D01*
X718214Y62157D01*
X718177Y62342D01*
X718158Y62491D01*
Y62583D01*
Y62620D01*
X718195Y63009D01*
X718288Y63379D01*
X718399Y63694D01*
X718547Y63972D01*
X718695Y64194D01*
X718806Y64361D01*
X718899Y64453D01*
X718936Y64490D01*
X719232Y64749D01*
X719547Y64935D01*
X719862Y65083D01*
X720158Y65175D01*
X720417Y65231D01*
X720621Y65250D01*
X720695Y65268D01*
X720806D01*
X721102Y65250D01*
D02*
G37*
G36*
X731490D02*
X731620Y65194D01*
X731712Y65101D01*
X731768Y65009D01*
X731805Y64898D01*
X731842Y64824D01*
Y64749D01*
Y64731D01*
Y55251D01*
X731823Y55084D01*
X731768Y54954D01*
X731675Y54862D01*
X731583Y54806D01*
X731490Y54769D01*
X731397Y54732D01*
X728176D01*
X727787Y54769D01*
X727416Y54843D01*
X727102Y54973D01*
X726824Y55121D01*
X726602Y55251D01*
X726435Y55380D01*
X726342Y55454D01*
X726305Y55491D01*
X726046Y55788D01*
X725861Y56121D01*
X725713Y56417D01*
X725620Y56713D01*
X725565Y56973D01*
X725546Y57176D01*
X725528Y57250D01*
Y57306D01*
Y57343D01*
Y57361D01*
Y62620D01*
X725565Y63028D01*
X725657Y63379D01*
X725768Y63694D01*
X725917Y63972D01*
X726065Y64194D01*
X726176Y64361D01*
X726268Y64453D01*
X726305Y64490D01*
X726602Y64749D01*
X726917Y64935D01*
X727231Y65083D01*
X727527Y65175D01*
X727787Y65231D01*
X727990Y65250D01*
X728064Y65268D01*
X731323D01*
X731490Y65250D01*
D02*
G37*
G36*
X719917Y140212D02*
X720047Y140138D01*
X720139Y140064D01*
X720158Y140046D01*
X720176Y140027D01*
X722232Y137972D01*
X722324Y137861D01*
X722361Y137731D01*
X722380Y137639D01*
Y137620D01*
Y137602D01*
X722361Y137435D01*
X722306Y137305D01*
X722213Y137213D01*
X722121Y137157D01*
X722028Y137120D01*
X721936Y137083D01*
X721861D01*
X721713Y137102D01*
X721584Y137157D01*
X721510Y137213D01*
X721491Y137231D01*
X720269Y138453D01*
Y130251D01*
X720250Y130084D01*
X720195Y129954D01*
X720102Y129862D01*
X720010Y129806D01*
X719917Y129769D01*
X719825Y129732D01*
X719751D01*
X719565Y129751D01*
X719436Y129806D01*
X719343Y129899D01*
X719288Y129991D01*
X719232Y130084D01*
X719213Y130176D01*
Y130232D01*
Y130251D01*
Y139712D01*
X719232Y139898D01*
X719288Y140027D01*
X719380Y140120D01*
X719473Y140175D01*
X719584Y140231D01*
X719658Y140250D01*
X719825D01*
X719917Y140212D01*
D02*
G37*
G36*
X730435Y140250D02*
X730564Y140194D01*
X730657Y140101D01*
X730712Y140009D01*
X730749Y139898D01*
X730786Y139824D01*
Y139749D01*
Y139731D01*
Y130251D01*
X730768Y130084D01*
X730712Y129954D01*
X730620Y129862D01*
X730527Y129806D01*
X730435Y129769D01*
X730342Y129732D01*
X727120D01*
X726731Y129769D01*
X726361Y129843D01*
X726046Y129973D01*
X725768Y130121D01*
X725546Y130251D01*
X725380Y130380D01*
X725287Y130454D01*
X725250Y130491D01*
X724991Y130787D01*
X724806Y131121D01*
X724657Y131417D01*
X724565Y131713D01*
X724509Y131973D01*
X724491Y132176D01*
X724472Y132250D01*
Y132306D01*
Y132343D01*
Y132361D01*
Y137620D01*
X724509Y138027D01*
X724602Y138379D01*
X724713Y138694D01*
X724861Y138972D01*
X725009Y139194D01*
X725120Y139361D01*
X725213Y139453D01*
X725250Y139490D01*
X725546Y139749D01*
X725861Y139935D01*
X726176Y140083D01*
X726472Y140175D01*
X726731Y140231D01*
X726935Y140250D01*
X727009Y140268D01*
X730268D01*
X730435Y140250D01*
D02*
G37*
G36*
X754074Y275231D02*
X754444Y275138D01*
X754759Y275027D01*
X755036Y274879D01*
X755259Y274731D01*
X755407Y274620D01*
X755518Y274527D01*
X755555Y274490D01*
X755814Y274194D01*
X755999Y273879D01*
X756129Y273564D01*
X756222Y273268D01*
X756277Y273009D01*
X756296Y272805D01*
X756314Y272731D01*
Y272676D01*
Y272639D01*
Y272620D01*
Y267361D01*
X756277Y266973D01*
X756203Y266602D01*
X756073Y266287D01*
X755925Y266010D01*
X755796Y265788D01*
X755666Y265639D01*
X755592Y265528D01*
X755555Y265491D01*
X755259Y265232D01*
X754925Y265047D01*
X754629Y264917D01*
X754333Y264825D01*
X754074Y264769D01*
X753870Y264750D01*
X753796Y264732D01*
X751592D01*
X751407Y264750D01*
X751278Y264806D01*
X751185Y264899D01*
X751130Y264991D01*
X751074Y265084D01*
X751055Y265176D01*
Y265232D01*
Y265250D01*
X751074Y265436D01*
X751130Y265565D01*
X751222Y265658D01*
X751315Y265713D01*
X751426Y265769D01*
X751500Y265788D01*
X753685D01*
X753925Y265806D01*
X754148Y265861D01*
X754333Y265936D01*
X754500Y266010D01*
X754629Y266084D01*
X754722Y266158D01*
X754796Y266213D01*
X754814Y266232D01*
X754962Y266417D01*
X755073Y266602D01*
X755148Y266787D01*
X755203Y266973D01*
X755240Y267121D01*
X755259Y267250D01*
Y267324D01*
Y267361D01*
Y272620D01*
X755240Y272861D01*
X755185Y273083D01*
X755111Y273268D01*
X755036Y273435D01*
X754962Y273564D01*
X754888Y273676D01*
X754833Y273731D01*
X754814Y273750D01*
X754629Y273898D01*
X754444Y274009D01*
X754259Y274101D01*
X754074Y274157D01*
X753925Y274194D01*
X753796Y274212D01*
X751592D01*
X751407Y274231D01*
X751278Y274287D01*
X751185Y274379D01*
X751130Y274472D01*
X751074Y274564D01*
X751055Y274657D01*
Y274713D01*
Y274731D01*
X751074Y274916D01*
X751130Y275046D01*
X751222Y275138D01*
X751315Y275194D01*
X751426Y275250D01*
X751500Y275268D01*
X753685D01*
X754074Y275231D01*
D02*
G37*
G36*
X748611Y275250D02*
X748741Y275194D01*
X748833Y275101D01*
X748889Y275009D01*
X748926Y274898D01*
X748963Y274824D01*
Y274750D01*
Y274731D01*
X748945Y274564D01*
X748889Y274435D01*
X748796Y274342D01*
X748704Y274287D01*
X748611Y274250D01*
X748519Y274212D01*
X744889D01*
X745704Y270528D01*
X746334D01*
X746500Y270509D01*
X746630Y270454D01*
X746723Y270361D01*
X746778Y270268D01*
X746815Y270157D01*
X746852Y270083D01*
Y270009D01*
Y269991D01*
X746834Y269824D01*
X746778Y269694D01*
X746685Y269602D01*
X746593Y269546D01*
X746500Y269509D01*
X746408Y269472D01*
X745945D01*
X746852Y265362D01*
Y265287D01*
Y265269D01*
Y265250D01*
X746834Y265084D01*
X746778Y264954D01*
X746685Y264862D01*
X746593Y264806D01*
X746500Y264769D01*
X746408Y264732D01*
X746334D01*
X746186Y264750D01*
X746075Y264788D01*
X745982Y264862D01*
X745926Y264936D01*
X745871Y265010D01*
X745834Y265084D01*
X745815Y265121D01*
Y265139D01*
X744871Y269472D01*
X744223D01*
X744038Y269491D01*
X743908Y269546D01*
X743816Y269639D01*
X743760Y269732D01*
X743704Y269824D01*
X743686Y269917D01*
Y269972D01*
Y269991D01*
X743704Y270176D01*
X743760Y270306D01*
X743852Y270398D01*
X743945Y270454D01*
X744056Y270509D01*
X744130Y270528D01*
X744612D01*
X743704Y274620D01*
X743686Y274713D01*
Y274750D01*
X743723Y274916D01*
X743778Y275046D01*
X743871Y275138D01*
X743964Y275212D01*
X744056Y275250D01*
X744149Y275268D01*
X748445D01*
X748611Y275250D01*
D02*
G37*
G36*
X804074Y410231D02*
X804444Y410138D01*
X804759Y410027D01*
X805036Y409879D01*
X805259Y409731D01*
X805407Y409620D01*
X805518Y409527D01*
X805555Y409490D01*
X805814Y409194D01*
X805999Y408879D01*
X806129Y408564D01*
X806222Y408268D01*
X806277Y408009D01*
X806296Y407805D01*
X806314Y407731D01*
Y407676D01*
Y407639D01*
Y407620D01*
Y402361D01*
X806277Y401973D01*
X806203Y401602D01*
X806073Y401287D01*
X805925Y401010D01*
X805796Y400788D01*
X805666Y400639D01*
X805592Y400528D01*
X805555Y400491D01*
X805259Y400232D01*
X804925Y400047D01*
X804629Y399917D01*
X804333Y399825D01*
X804074Y399769D01*
X803870Y399751D01*
X803796Y399732D01*
X801592D01*
X801407Y399751D01*
X801278Y399806D01*
X801185Y399899D01*
X801130Y399991D01*
X801074Y400084D01*
X801055Y400176D01*
Y400232D01*
Y400251D01*
X801074Y400436D01*
X801130Y400565D01*
X801222Y400658D01*
X801315Y400713D01*
X801426Y400769D01*
X801500Y400788D01*
X803685D01*
X803925Y400806D01*
X804148Y400862D01*
X804333Y400936D01*
X804500Y401010D01*
X804629Y401084D01*
X804722Y401158D01*
X804796Y401213D01*
X804814Y401232D01*
X804962Y401417D01*
X805073Y401602D01*
X805148Y401787D01*
X805203Y401973D01*
X805240Y402121D01*
X805259Y402250D01*
Y402324D01*
Y402361D01*
Y407620D01*
X805240Y407861D01*
X805185Y408083D01*
X805111Y408268D01*
X805036Y408435D01*
X804962Y408564D01*
X804888Y408676D01*
X804833Y408731D01*
X804814Y408750D01*
X804629Y408898D01*
X804444Y409009D01*
X804259Y409101D01*
X804074Y409157D01*
X803925Y409194D01*
X803796Y409212D01*
X801592D01*
X801407Y409231D01*
X801278Y409287D01*
X801185Y409379D01*
X801130Y409472D01*
X801074Y409564D01*
X801055Y409657D01*
Y409712D01*
Y409731D01*
X801074Y409916D01*
X801130Y410046D01*
X801222Y410138D01*
X801315Y410194D01*
X801426Y410249D01*
X801500Y410268D01*
X803685D01*
X804074Y410231D01*
D02*
G37*
G36*
X798593Y410249D02*
X798722Y410194D01*
X798815Y410101D01*
X798870Y410009D01*
X798907Y409898D01*
X798945Y409824D01*
Y409749D01*
Y409731D01*
Y405509D01*
X798926Y405343D01*
X798870Y405213D01*
X798778Y405120D01*
X798685Y405065D01*
X798593Y405028D01*
X798500Y404991D01*
X796334D01*
X796093Y404972D01*
X795871Y404917D01*
X795686Y404843D01*
X795519Y404769D01*
X795389Y404676D01*
X795278Y404602D01*
X795223Y404546D01*
X795204Y404528D01*
X795056Y404343D01*
X794945Y404157D01*
X794852Y403972D01*
X794797Y403787D01*
X794760Y403639D01*
X794741Y403509D01*
Y403435D01*
Y403398D01*
Y402361D01*
X794760Y402121D01*
X794815Y401898D01*
X794889Y401713D01*
X794964Y401547D01*
X795056Y401417D01*
X795130Y401325D01*
X795186Y401250D01*
X795204Y401232D01*
X795389Y401084D01*
X795574Y400973D01*
X795760Y400899D01*
X795945Y400843D01*
X796093Y400806D01*
X796223Y400788D01*
X798426D01*
X798593Y400769D01*
X798722Y400713D01*
X798815Y400621D01*
X798870Y400528D01*
X798907Y400417D01*
X798945Y400343D01*
Y400269D01*
Y400251D01*
X798926Y400084D01*
X798870Y399954D01*
X798778Y399862D01*
X798685Y399806D01*
X798593Y399769D01*
X798500Y399732D01*
X796315D01*
X795926Y399769D01*
X795574Y399843D01*
X795260Y399973D01*
X794982Y400121D01*
X794760Y400251D01*
X794593Y400380D01*
X794501Y400454D01*
X794464Y400491D01*
X794204Y400788D01*
X794019Y401121D01*
X793871Y401417D01*
X793778Y401713D01*
X793723Y401973D01*
X793704Y402176D01*
X793686Y402250D01*
Y402306D01*
Y402343D01*
Y402361D01*
Y403398D01*
X793723Y403787D01*
X793816Y404157D01*
X793927Y404472D01*
X794075Y404750D01*
X794223Y404972D01*
X794334Y405139D01*
X794426Y405232D01*
X794464Y405269D01*
X794760Y405528D01*
X795075Y405713D01*
X795389Y405861D01*
X795667Y405954D01*
X795926Y406009D01*
X796130Y406028D01*
X796204Y406046D01*
X797889D01*
Y409212D01*
X794741D01*
X794575Y409231D01*
X794445Y409287D01*
X794352Y409379D01*
X794278Y409472D01*
X794241Y409564D01*
X794223Y409657D01*
Y409712D01*
Y409731D01*
X794241Y409916D01*
X794297Y410046D01*
X794389Y410138D01*
X794482Y410194D01*
X794575Y410249D01*
X794667Y410268D01*
X798426D01*
X798593Y410249D01*
D02*
G37*
G36*
X731490Y215250D02*
X731620Y215194D01*
X731712Y215101D01*
X731768Y215009D01*
X731805Y214898D01*
X731842Y214824D01*
Y214750D01*
Y214731D01*
Y205250D01*
X731823Y205084D01*
X731768Y204954D01*
X731675Y204862D01*
X731583Y204806D01*
X731490Y204769D01*
X731397Y204732D01*
X728176D01*
X727787Y204769D01*
X727416Y204843D01*
X727102Y204973D01*
X726824Y205121D01*
X726602Y205250D01*
X726435Y205380D01*
X726342Y205454D01*
X726305Y205491D01*
X726046Y205788D01*
X725861Y206121D01*
X725713Y206417D01*
X725620Y206713D01*
X725565Y206973D01*
X725546Y207176D01*
X725528Y207250D01*
Y207306D01*
Y207343D01*
Y207361D01*
Y212620D01*
X725565Y213027D01*
X725657Y213379D01*
X725768Y213694D01*
X725917Y213972D01*
X726065Y214194D01*
X726176Y214361D01*
X726268Y214453D01*
X726305Y214490D01*
X726602Y214750D01*
X726917Y214935D01*
X727231Y215083D01*
X727527Y215175D01*
X727787Y215231D01*
X727990Y215250D01*
X728064Y215268D01*
X731323D01*
X731490Y215250D01*
D02*
G37*
G36*
X723083D02*
X723213Y215194D01*
X723306Y215101D01*
X723361Y215009D01*
X723398Y214898D01*
X723435Y214824D01*
Y214750D01*
Y214731D01*
X723417Y214564D01*
X723343Y214435D01*
X723269Y214342D01*
X723158Y214287D01*
X723065Y214250D01*
X722972Y214213D01*
X720806D01*
X720565Y214194D01*
X720343Y214139D01*
X720158Y214064D01*
X719991Y213972D01*
X719862Y213879D01*
X719751Y213805D01*
X719695Y213750D01*
X719677Y213731D01*
X719528Y213546D01*
X719417Y213361D01*
X719325Y213176D01*
X719269Y213009D01*
X719232Y212842D01*
X719213Y212731D01*
Y212657D01*
Y212620D01*
X719232Y212379D01*
X719288Y212157D01*
X719362Y211972D01*
X719436Y211805D01*
X719528Y211676D01*
X719602Y211583D01*
X719658Y211509D01*
X719677Y211491D01*
X719862Y211343D01*
X720047Y211231D01*
X720232Y211157D01*
X720417Y211102D01*
X720565Y211065D01*
X720695Y211046D01*
X721861D01*
X722028Y211028D01*
X722158Y210972D01*
X722250Y210880D01*
X722306Y210787D01*
X722343Y210676D01*
X722380Y210602D01*
Y210528D01*
Y210509D01*
X722361Y210343D01*
X722306Y210213D01*
X722213Y210120D01*
X722121Y210065D01*
X722028Y210028D01*
X721936Y209991D01*
X720806D01*
X720565Y209972D01*
X720343Y209917D01*
X720158Y209843D01*
X719991Y209769D01*
X719862Y209676D01*
X719751Y209602D01*
X719695Y209546D01*
X719677Y209528D01*
X719528Y209343D01*
X719417Y209158D01*
X719325Y208972D01*
X719269Y208787D01*
X719232Y208639D01*
X719213Y208509D01*
Y208435D01*
Y208398D01*
Y207361D01*
X719232Y207121D01*
X719288Y206898D01*
X719362Y206713D01*
X719436Y206547D01*
X719528Y206417D01*
X719602Y206325D01*
X719658Y206250D01*
X719677Y206232D01*
X719862Y206084D01*
X720047Y205973D01*
X720232Y205899D01*
X720417Y205843D01*
X720565Y205806D01*
X720695Y205788D01*
X722898D01*
X723083Y205769D01*
X723213Y205713D01*
X723306Y205621D01*
X723361Y205528D01*
X723398Y205417D01*
X723435Y205343D01*
Y205269D01*
Y205250D01*
X723417Y205084D01*
X723343Y204954D01*
X723269Y204862D01*
X723158Y204806D01*
X723065Y204769D01*
X722972Y204732D01*
X720806D01*
X720417Y204769D01*
X720047Y204843D01*
X719732Y204973D01*
X719454Y205121D01*
X719232Y205250D01*
X719065Y205380D01*
X718973Y205454D01*
X718936Y205491D01*
X718677Y205788D01*
X718491Y206121D01*
X718343Y206417D01*
X718251Y206713D01*
X718195Y206973D01*
X718177Y207176D01*
X718158Y207250D01*
Y207306D01*
Y207343D01*
Y207361D01*
Y208398D01*
X718177Y208639D01*
X718195Y208861D01*
X718251Y209083D01*
X718325Y209287D01*
X718491Y209639D01*
X718677Y209954D01*
X718880Y210194D01*
X719047Y210361D01*
X719121Y210435D01*
X719176Y210472D01*
X719195Y210509D01*
X719213D01*
X719028Y210657D01*
X718862Y210824D01*
X718732Y211009D01*
X718603Y211176D01*
X718491Y211361D01*
X718417Y211528D01*
X718288Y211861D01*
X718214Y212157D01*
X718195Y212287D01*
X718177Y212398D01*
X718158Y212491D01*
Y212565D01*
Y212602D01*
Y212620D01*
X718195Y213009D01*
X718288Y213379D01*
X718399Y213694D01*
X718547Y213972D01*
X718695Y214194D01*
X718806Y214361D01*
X718899Y214453D01*
X718936Y214490D01*
X719232Y214750D01*
X719547Y214935D01*
X719862Y215083D01*
X720158Y215175D01*
X720417Y215231D01*
X720621Y215250D01*
X720695Y215268D01*
X722898D01*
X723083Y215250D01*
D02*
G37*
G36*
X85886Y948219D02*
X86164Y948164D01*
X86423Y948071D01*
X86664Y947942D01*
X86886Y947794D01*
X87108Y947627D01*
X87293Y947460D01*
X87478Y947294D01*
X87626Y947108D01*
X87775Y946942D01*
X87886Y946775D01*
X87978Y946627D01*
X88071Y946516D01*
X88126Y946405D01*
X88145Y946349D01*
X88163Y946331D01*
X88201Y946257D01*
X88219Y946201D01*
Y946146D01*
Y946127D01*
X88201Y945942D01*
X88126Y945812D01*
X88052Y945720D01*
X87941Y945664D01*
X87849Y945627D01*
X87756Y945590D01*
X87682D01*
X87571Y945609D01*
X87478Y945627D01*
X87349Y945720D01*
X87256Y945812D01*
X87238Y945831D01*
Y945849D01*
X87090Y946090D01*
X86941Y946294D01*
X86812Y946460D01*
X86664Y946627D01*
X86515Y946757D01*
X86386Y946849D01*
X86256Y946942D01*
X86127Y947016D01*
X85904Y947108D01*
X85738Y947164D01*
X85627Y947182D01*
X85590D01*
X85349Y947164D01*
X85127Y947108D01*
X84942Y947034D01*
X84775Y946960D01*
X84645Y946868D01*
X84534Y946794D01*
X84479Y946738D01*
X84460Y946720D01*
X84312Y946534D01*
X84201Y946349D01*
X84108Y946164D01*
X84053Y945979D01*
X84016Y945831D01*
X83997Y945701D01*
Y945627D01*
Y945590D01*
X84016Y945423D01*
X84034Y945275D01*
X84071Y945127D01*
X84127Y944998D01*
X84182Y944886D01*
X84219Y944794D01*
X84238Y944738D01*
X84256Y944720D01*
X88126Y938517D01*
X88182Y938424D01*
X88201Y938313D01*
X88219Y938258D01*
Y938221D01*
X88201Y938054D01*
X88126Y937924D01*
X88052Y937832D01*
X87941Y937776D01*
X87849Y937739D01*
X87756Y937702D01*
X83479D01*
X83294Y937720D01*
X83164Y937776D01*
X83071Y937869D01*
X83016Y937961D01*
X82960Y938054D01*
X82942Y938146D01*
Y938202D01*
Y938221D01*
X82960Y938406D01*
X83016Y938535D01*
X83108Y938628D01*
X83201Y938683D01*
X83312Y938739D01*
X83386Y938757D01*
X86738D01*
X83423Y944072D01*
X83257Y944368D01*
X83145Y944646D01*
X83053Y944886D01*
X82997Y945127D01*
X82960Y945312D01*
X82942Y945461D01*
Y945553D01*
Y945590D01*
X82979Y945979D01*
X83071Y946349D01*
X83182Y946664D01*
X83331Y946942D01*
X83479Y947164D01*
X83590Y947331D01*
X83682Y947423D01*
X83719Y947460D01*
X84016Y947719D01*
X84331Y947905D01*
X84645Y948053D01*
X84942Y948145D01*
X85201Y948201D01*
X85405Y948219D01*
X85478Y948238D01*
X85590D01*
X85886Y948219D01*
D02*
G37*
G36*
X105773Y948201D02*
X105902Y948145D01*
X105995Y948053D01*
X106051Y947960D01*
X106088Y947849D01*
X106124Y947775D01*
Y947701D01*
Y947682D01*
X106106Y947571D01*
X106088Y947534D01*
Y947516D01*
X102958Y938091D01*
X102884Y937961D01*
X102810Y937869D01*
X102736Y937795D01*
X102643Y937758D01*
X102569Y937720D01*
X102495Y937702D01*
X102440D01*
X102310Y937720D01*
X102199Y937758D01*
X102106Y937832D01*
X102032Y937906D01*
X101940Y938035D01*
X101921Y938072D01*
Y938091D01*
X98773Y947516D01*
X98755Y947627D01*
Y947664D01*
Y947682D01*
X98773Y947868D01*
X98829Y947997D01*
X98922Y948090D01*
X99014Y948145D01*
X99107Y948201D01*
X99199Y948219D01*
X99273D01*
X99403Y948201D01*
X99514Y948164D01*
X99607Y948108D01*
X99662Y948034D01*
X99755Y947905D01*
X99773Y947868D01*
Y947849D01*
X102440Y939887D01*
X105088Y947849D01*
X105143Y947979D01*
X105217Y948071D01*
X105310Y948127D01*
X105384Y948182D01*
X105458Y948201D01*
X105532Y948219D01*
X105588D01*
X105773Y948201D01*
D02*
G37*
G36*
X96292Y948219D02*
X96422Y948164D01*
X96514Y948071D01*
X96570Y947979D01*
X96607Y947868D01*
X96644Y947794D01*
Y947719D01*
Y947701D01*
X96625Y947534D01*
X96551Y947405D01*
X96477Y947312D01*
X96366Y947257D01*
X96274Y947219D01*
X96181Y947182D01*
X93996D01*
Y938221D01*
X93978Y938054D01*
X93922Y937924D01*
X93829Y937832D01*
X93737Y937776D01*
X93644Y937739D01*
X93552Y937702D01*
X93478D01*
X93293Y937720D01*
X93163Y937776D01*
X93070Y937869D01*
X93015Y937961D01*
X92959Y938054D01*
X92941Y938146D01*
Y938202D01*
Y938221D01*
Y947182D01*
X90848D01*
X90663Y947201D01*
X90534Y947257D01*
X90441Y947349D01*
X90385Y947442D01*
X90330Y947534D01*
X90311Y947627D01*
Y947682D01*
Y947701D01*
X90330Y947886D01*
X90385Y948016D01*
X90478Y948108D01*
X90571Y948164D01*
X90682Y948219D01*
X90756Y948238D01*
X96107D01*
X96292Y948219D01*
D02*
G37*
%LPC*%
G36*
X568943Y619212D02*
X566851D01*
X566536Y619194D01*
X566240Y619120D01*
X565981Y619009D01*
X565759Y618898D01*
X565592Y618787D01*
X565462Y618675D01*
X565370Y618601D01*
X565351Y618583D01*
X565148Y618342D01*
X565000Y618102D01*
X564888Y617842D01*
X564814Y617620D01*
X564777Y617416D01*
X564740Y617250D01*
Y617139D01*
Y617120D01*
Y617102D01*
X564759Y616787D01*
X564833Y616491D01*
X564925Y616231D01*
X565037Y616028D01*
X565166Y615843D01*
X565259Y615713D01*
X565333Y615639D01*
X565351Y615602D01*
X565592Y615398D01*
X565851Y615250D01*
X566092Y615139D01*
X566333Y615065D01*
X566536Y615028D01*
X566703Y615009D01*
X566814Y614991D01*
X568943D01*
Y619212D01*
D02*
G37*
G36*
X633416Y704212D02*
X631323D01*
X631009Y704194D01*
X630712Y704120D01*
X630453Y704009D01*
X630231Y703898D01*
X630064Y703787D01*
X629935Y703676D01*
X629842Y703602D01*
X629824Y703583D01*
X629620Y703342D01*
X629472Y703102D01*
X629361Y702842D01*
X629287Y702620D01*
X629249Y702416D01*
X629212Y702250D01*
Y702139D01*
Y702120D01*
Y702102D01*
X629231Y701787D01*
X629305Y701491D01*
X629398Y701231D01*
X629509Y701028D01*
X629638Y700843D01*
X629731Y700713D01*
X629805Y700639D01*
X629824Y700602D01*
X630064Y700398D01*
X630323Y700250D01*
X630564Y700139D01*
X630805Y700065D01*
X631009Y700028D01*
X631175Y700009D01*
X631286Y699991D01*
X633416D01*
Y704212D01*
D02*
G37*
G36*
X618195D02*
X618158D01*
X617991Y704194D01*
X617862Y704138D01*
X617714Y704046D01*
X617584Y703935D01*
X617473Y703805D01*
X617362Y703657D01*
X617195Y703342D01*
X617047Y703009D01*
X617010Y702861D01*
X616954Y702731D01*
X616917Y702620D01*
X616899Y702527D01*
X616880Y702472D01*
Y702454D01*
X616788Y702028D01*
X616714Y701583D01*
X616658Y701176D01*
X616621Y700787D01*
X616603Y700472D01*
X616584Y700324D01*
Y700213D01*
Y700120D01*
Y700046D01*
Y700009D01*
Y699991D01*
X616603Y699509D01*
X616621Y699065D01*
X616677Y698639D01*
X616732Y698269D01*
X616788Y697972D01*
X616806Y697843D01*
X616825Y697732D01*
X616843Y697639D01*
X616862Y697584D01*
X616880Y697547D01*
Y697528D01*
X616954Y697213D01*
X617047Y696954D01*
X617158Y696713D01*
X617251Y696528D01*
X617362Y696361D01*
X617454Y696213D01*
X617566Y696102D01*
X617677Y696010D01*
X617769Y695936D01*
X617862Y695880D01*
X618010Y695825D01*
X618121Y695788D01*
X618158D01*
X618325Y695806D01*
X618473Y695862D01*
X618602Y695954D01*
X618732Y696065D01*
X618843Y696195D01*
X618954Y696343D01*
X619140Y696658D01*
X619269Y696973D01*
X619325Y697121D01*
X619380Y697250D01*
X619417Y697361D01*
X619436Y697454D01*
X619454Y697510D01*
Y697528D01*
X619547Y697972D01*
X619621Y698398D01*
X619658Y698824D01*
X619695Y699194D01*
X619714Y699528D01*
X619732Y699658D01*
Y699769D01*
Y699861D01*
Y699935D01*
Y699972D01*
Y699991D01*
X619714Y700472D01*
X619695Y700917D01*
X619639Y701324D01*
X619584Y701694D01*
X619547Y702009D01*
X619510Y702139D01*
X619491Y702250D01*
X619473Y702342D01*
Y702398D01*
X619454Y702435D01*
Y702454D01*
X619362Y702768D01*
X619269Y703027D01*
X619176Y703268D01*
X619065Y703472D01*
X618973Y703639D01*
X618862Y703787D01*
X618751Y703898D01*
X618639Y703990D01*
X618547Y704064D01*
X618454Y704120D01*
X618306Y704194D01*
X618195Y704212D01*
D02*
G37*
G36*
X731314Y289212D02*
X728703D01*
X728463Y289194D01*
X728240Y289139D01*
X728055Y289064D01*
X727889Y288990D01*
X727759Y288898D01*
X727648Y288824D01*
X727592Y288768D01*
X727574Y288750D01*
X727426Y288564D01*
X727315Y288379D01*
X727222Y288194D01*
X727166Y288009D01*
X727129Y287861D01*
X727111Y287731D01*
Y287657D01*
Y287620D01*
Y282361D01*
X727129Y282121D01*
X727185Y281898D01*
X727259Y281713D01*
X727333Y281547D01*
X727426Y281417D01*
X727500Y281325D01*
X727555Y281250D01*
X727574Y281232D01*
X727759Y281084D01*
X727944Y280973D01*
X728129Y280899D01*
X728315Y280843D01*
X728463Y280806D01*
X728592Y280788D01*
X731314D01*
Y289212D01*
D02*
G37*
G36*
X730786Y64212D02*
X728176D01*
X727935Y64194D01*
X727713Y64138D01*
X727527Y64064D01*
X727361Y63990D01*
X727231Y63898D01*
X727120Y63824D01*
X727065Y63768D01*
X727046Y63750D01*
X726898Y63565D01*
X726787Y63379D01*
X726694Y63194D01*
X726639Y63009D01*
X726602Y62861D01*
X726583Y62731D01*
Y62657D01*
Y62620D01*
Y57361D01*
X726602Y57121D01*
X726657Y56898D01*
X726731Y56713D01*
X726805Y56547D01*
X726898Y56417D01*
X726972Y56325D01*
X727028Y56250D01*
X727046Y56232D01*
X727231Y56084D01*
X727416Y55973D01*
X727602Y55899D01*
X727787Y55843D01*
X727935Y55806D01*
X728064Y55788D01*
X730786D01*
Y64212D01*
D02*
G37*
G36*
X729731Y139213D02*
X727120D01*
X726879Y139194D01*
X726657Y139138D01*
X726472Y139064D01*
X726305Y138990D01*
X726176Y138898D01*
X726065Y138824D01*
X726009Y138768D01*
X725991Y138750D01*
X725843Y138565D01*
X725731Y138379D01*
X725639Y138194D01*
X725583Y138009D01*
X725546Y137861D01*
X725528Y137731D01*
Y137657D01*
Y137620D01*
Y132361D01*
X725546Y132121D01*
X725602Y131898D01*
X725676Y131713D01*
X725750Y131547D01*
X725843Y131417D01*
X725917Y131325D01*
X725972Y131250D01*
X725991Y131232D01*
X726176Y131084D01*
X726361Y130973D01*
X726546Y130899D01*
X726731Y130843D01*
X726879Y130806D01*
X727009Y130787D01*
X729731D01*
Y139213D01*
D02*
G37*
G36*
X730786Y214213D02*
X728176D01*
X727935Y214194D01*
X727713Y214139D01*
X727527Y214064D01*
X727361Y213990D01*
X727231Y213898D01*
X727120Y213824D01*
X727065Y213768D01*
X727046Y213750D01*
X726898Y213564D01*
X726787Y213379D01*
X726694Y213194D01*
X726639Y213009D01*
X726602Y212861D01*
X726583Y212731D01*
Y212657D01*
Y212620D01*
Y207361D01*
X726602Y207121D01*
X726657Y206898D01*
X726731Y206713D01*
X726805Y206547D01*
X726898Y206417D01*
X726972Y206325D01*
X727028Y206250D01*
X727046Y206232D01*
X727231Y206084D01*
X727416Y205973D01*
X727602Y205899D01*
X727787Y205843D01*
X727935Y205806D01*
X728064Y205788D01*
X730786D01*
Y214213D01*
D02*
G37*
%LPD*%
D10*
X622000Y80500D02*
Y90500D01*
Y80500D02*
X698000D01*
Y90500D01*
X622000Y129500D02*
Y139500D01*
X698000D01*
Y129500D02*
Y139500D01*
X608250Y673000D02*
Y707000D01*
X591750Y673000D02*
Y707000D01*
Y673000D02*
X608250D01*
X591750Y707000D02*
X608250D01*
X551750Y568000D02*
Y602000D01*
X568250Y568000D02*
Y602000D01*
X551750D02*
X568250D01*
X551750Y568000D02*
X568250D01*
X796750Y392000D02*
X813250D01*
X796750Y358000D02*
X813250D01*
X796750D02*
Y392000D01*
X813250Y358000D02*
Y392000D01*
X105000Y769000D02*
Y931000D01*
X51000Y769000D02*
X105000D01*
X51000Y931000D02*
X105000D01*
X51000Y769000D02*
Y931000D01*
X885000Y539000D02*
Y701000D01*
X939000D01*
X885000Y539000D02*
X939000D01*
Y701000D01*
X105000Y539000D02*
Y701000D01*
X51000Y539000D02*
X105000D01*
X51000Y701000D02*
X105000D01*
X51000Y539000D02*
Y701000D01*
X885000Y769000D02*
Y931000D01*
X939000D01*
X885000Y769000D02*
X939000D01*
Y931000D01*
X718000Y241750D02*
Y258250D01*
X752000Y241750D02*
Y258250D01*
X718000Y241750D02*
X752000D01*
X718000Y258250D02*
X752000D01*
X622000Y230500D02*
Y240500D01*
Y230500D02*
X698000D01*
Y240500D01*
X622000Y279500D02*
Y289500D01*
X698000D01*
Y279500D02*
Y289500D01*
X622000Y155500D02*
Y165500D01*
Y155500D02*
X698000D01*
Y165500D01*
X622000Y204500D02*
Y214500D01*
X698000D01*
Y204500D02*
Y214500D01*
Y54500D02*
Y64500D01*
X622000D02*
X698000D01*
X622000Y54500D02*
Y64500D01*
X698000Y5500D02*
Y15500D01*
X622000Y5500D02*
X698000D01*
X622000D02*
Y15500D01*
D13*
X610250Y110000D02*
G03*
X610250Y110000I-1250J0D01*
G01*
X712250Y260000D02*
G03*
X712250Y260000I-1250J0D01*
G01*
Y185000D02*
G03*
X712250Y185000I-1250J0D01*
G01*
X610250Y35000D02*
G03*
X610250Y35000I-1250J0D01*
G01*
M02*
