G04*
G04 #@! TF.GenerationSoftware,Altium Limited,Altium Designer,20.0.10 (225)*
G04*
G04 Layer_Physical_Order=2*
G04 Layer_Color=11367680*
%FSLAX44Y44*%
%MOMM*%
G71*
G01*
G75*
%ADD26C,5.7500*%
%ADD32R,1.2500X1.0000*%
%ADD33R,1.0000X1.2500*%
%ADD35C,6.0000*%
%ADD36C,0.8000*%
%ADD38C,0.6000*%
%ADD41C,1.5000*%
%ADD42C,1.6000*%
%ADD43C,1.5000*%
%ADD44R,1.5000X1.5000*%
%ADD45R,1.5000X1.5000*%
%ADD46O,2.0000X1.0000*%
%ADD47O,2.0000X1.0000*%
%ADD48C,2.0000*%
%ADD49R,1.6000X1.6000*%
%ADD50C,5.6000*%
%ADD51C,2.6500*%
%ADD52C,2.5000*%
%ADD53C,3.0000*%
%ADD54R,2.0000X2.0000*%
%ADD55C,0.7000*%
%ADD56R,2.4500X3.2000*%
%ADD57C,2.0000*%
%ADD58C,0.7000*%
G36*
X995941Y993331D02*
Y4059D01*
X4059D01*
Y995941D01*
X992941Y995941D01*
X995941Y993331D01*
D02*
G37*
%LPC*%
G36*
X246500Y978937D02*
Y968500D01*
X256937D01*
X256304Y971682D01*
X253652Y975651D01*
X249682Y978304D01*
X246500Y978937D01*
D02*
G37*
G36*
X243500D02*
X240318Y978304D01*
X236348Y975651D01*
X233696Y971682D01*
X233063Y968500D01*
X243500D01*
Y978937D01*
D02*
G37*
G36*
Y965500D02*
X233063D01*
X233696Y962318D01*
X236348Y958348D01*
X240318Y955696D01*
X243500Y955063D01*
Y965500D01*
D02*
G37*
G36*
X256937D02*
X246500D01*
Y955063D01*
X249682Y955696D01*
X253652Y958348D01*
X256304Y962318D01*
X256937Y965500D01*
D02*
G37*
G36*
X150000Y919235D02*
X145318Y918304D01*
X141348Y915651D01*
X138696Y911682D01*
X137765Y907000D01*
X138696Y902318D01*
X141348Y898348D01*
X145318Y895696D01*
X150000Y894765D01*
X154682Y895696D01*
X158652Y898348D01*
X161304Y902318D01*
X162235Y907000D01*
X161304Y911682D01*
X158652Y915651D01*
X154682Y918304D01*
X150000Y919235D01*
D02*
G37*
G36*
X910000Y921833D02*
X903367Y920514D01*
X897744Y916756D01*
X893987Y911133D01*
X892667Y904500D01*
X893987Y897867D01*
X897744Y892244D01*
X903367Y888486D01*
X910000Y887167D01*
X916633Y888486D01*
X922256Y892244D01*
X926014Y897867D01*
X927333Y904500D01*
X926014Y911133D01*
X922256Y916756D01*
X916633Y920514D01*
X910000Y921833D01*
D02*
G37*
G36*
X80000Y921833D02*
X73367Y920514D01*
X67744Y916756D01*
X63986Y911133D01*
X62667Y904500D01*
X63986Y897867D01*
X67744Y892244D01*
X73367Y888486D01*
X80000Y887167D01*
X86633Y888486D01*
X92256Y892244D01*
X96014Y897867D01*
X97333Y904500D01*
X96014Y911133D01*
X92256Y916756D01*
X86633Y920514D01*
X80000Y921833D01*
D02*
G37*
G36*
X746500Y873937D02*
Y863500D01*
X756937D01*
X756304Y866682D01*
X753652Y870652D01*
X749682Y873304D01*
X746500Y873937D01*
D02*
G37*
G36*
X743500Y873937D02*
X740318Y873304D01*
X736348Y870652D01*
X733696Y866682D01*
X733063Y863500D01*
X743500D01*
Y873937D01*
D02*
G37*
G36*
Y860500D02*
X733063D01*
X733696Y857318D01*
X736348Y853349D01*
X740318Y850696D01*
X743500Y850063D01*
Y860500D01*
D02*
G37*
G36*
X756937D02*
X746500D01*
Y850063D01*
X749682Y850696D01*
X753652Y853349D01*
X756304Y857318D01*
X756937Y860500D01*
D02*
G37*
G36*
X910000Y867333D02*
X903367Y866014D01*
X897744Y862256D01*
X893987Y856633D01*
X892667Y850000D01*
X893987Y843367D01*
X897744Y837744D01*
X903367Y833986D01*
X910000Y832667D01*
X916633Y833986D01*
X922256Y837744D01*
X926014Y843367D01*
X927333Y850000D01*
X926014Y856633D01*
X922256Y862256D01*
X916633Y866014D01*
X910000Y867333D01*
D02*
G37*
G36*
X80000Y867333D02*
X73367Y866014D01*
X67744Y862256D01*
X63986Y856633D01*
X62667Y850000D01*
X63986Y843367D01*
X67744Y837744D01*
X73367Y833986D01*
X80000Y832667D01*
X86633Y833986D01*
X92256Y837744D01*
X96014Y843367D01*
X97333Y850000D01*
X96014Y856633D01*
X92256Y862256D01*
X86633Y866014D01*
X80000Y867333D01*
D02*
G37*
G36*
X840000Y807235D02*
X835318Y806304D01*
X831348Y803652D01*
X828696Y799682D01*
X827765Y795000D01*
X828696Y790318D01*
X831348Y786349D01*
X835318Y783696D01*
X840000Y782765D01*
X844682Y783696D01*
X848652Y786349D01*
X851304Y790318D01*
X852235Y795000D01*
X851304Y799682D01*
X848652Y803652D01*
X844682Y806304D01*
X840000Y807235D01*
D02*
G37*
G36*
X910000Y812833D02*
X903367Y811514D01*
X897744Y807756D01*
X893987Y802133D01*
X892667Y795500D01*
X893987Y788867D01*
X897744Y783244D01*
X903367Y779486D01*
X910000Y778167D01*
X916633Y779486D01*
X922256Y783244D01*
X926014Y788867D01*
X927333Y795500D01*
X926014Y802133D01*
X922256Y807756D01*
X916633Y811514D01*
X910000Y812833D01*
D02*
G37*
G36*
X80000Y812833D02*
X73367Y811514D01*
X67744Y807756D01*
X63986Y802133D01*
X62667Y795500D01*
X63986Y788867D01*
X67744Y783244D01*
X73367Y779486D01*
X80000Y778167D01*
X86633Y779486D01*
X92256Y783244D01*
X96014Y788867D01*
X97333Y795500D01*
X96014Y802133D01*
X92256Y807756D01*
X86633Y811514D01*
X80000Y812833D01*
D02*
G37*
G36*
X970000Y775184D02*
X964342Y774059D01*
X959546Y770854D01*
X956341Y766058D01*
X955216Y760400D01*
X956341Y754742D01*
X959546Y749946D01*
X964342Y746741D01*
X970000Y745616D01*
X975658Y746741D01*
X980454Y749946D01*
X983659Y754742D01*
X984784Y760400D01*
X983659Y766058D01*
X980454Y770854D01*
X975658Y774059D01*
X970000Y775184D01*
D02*
G37*
G36*
X25000D02*
X19342Y774059D01*
X14546Y770854D01*
X11341Y766058D01*
X10216Y760400D01*
X11341Y754742D01*
X14546Y749946D01*
X19342Y746741D01*
X25000Y745616D01*
X30658Y746741D01*
X35454Y749946D01*
X38659Y754742D01*
X39784Y760400D01*
X38659Y766058D01*
X35454Y770854D01*
X30658Y774059D01*
X25000Y775184D01*
D02*
G37*
G36*
X575000Y729686D02*
X571293Y728949D01*
X568151Y726849D01*
X567190Y725411D01*
X551305D01*
X550001Y725951D01*
X548698Y725411D01*
X416310D01*
X415000Y725953D01*
X410790Y724210D01*
X409047Y720000D01*
X410790Y715790D01*
X415000Y714047D01*
X416303Y714587D01*
X548692D01*
X550001Y714044D01*
X551311Y714587D01*
X567192D01*
X568151Y713151D01*
X571293Y711051D01*
X575000Y710314D01*
X578707Y711051D01*
X581849Y713151D01*
X583949Y716293D01*
X584686Y720000D01*
X583949Y723707D01*
X581849Y726849D01*
X578707Y728949D01*
X575000Y729686D01*
D02*
G37*
G36*
X635300Y729500D02*
X627300D01*
Y721500D01*
X635300D01*
Y729500D01*
D02*
G37*
G36*
X624300D02*
X616300D01*
Y721500D01*
X624300D01*
Y729500D01*
D02*
G37*
G36*
X635300Y718500D02*
X627300D01*
Y710500D01*
X635300D01*
Y718500D01*
D02*
G37*
G36*
X624300D02*
X616300D01*
Y710500D01*
X624300D01*
Y718500D01*
D02*
G37*
G36*
X970000Y724384D02*
X964342Y723259D01*
X959546Y720054D01*
X956341Y715258D01*
X955216Y709600D01*
X956341Y703942D01*
X959546Y699146D01*
X964342Y695941D01*
X970000Y694816D01*
X975658Y695941D01*
X980454Y699146D01*
X983659Y703942D01*
X984784Y709600D01*
X983659Y715258D01*
X980454Y720054D01*
X975658Y723259D01*
X970000Y724384D01*
D02*
G37*
G36*
X25000D02*
X19342Y723259D01*
X14546Y720054D01*
X11341Y715258D01*
X10216Y709600D01*
X11341Y703942D01*
X14546Y699146D01*
X19342Y695941D01*
X25000Y694816D01*
X30658Y695941D01*
X35454Y699146D01*
X38659Y703942D01*
X39784Y709600D01*
X38659Y715258D01*
X35454Y720054D01*
X30658Y723259D01*
X25000Y724384D01*
D02*
G37*
G36*
X600400Y729686D02*
X596693Y728949D01*
X593551Y726849D01*
X591451Y723707D01*
X590714Y720000D01*
X591451Y716293D01*
X593551Y713151D01*
X594788Y712324D01*
Y707000D01*
X591750D01*
Y693000D01*
X608250D01*
Y707000D01*
X605612D01*
Y712057D01*
X607249Y713151D01*
X609349Y716293D01*
X610086Y720000D01*
X609349Y723707D01*
X607249Y726849D01*
X604107Y728949D01*
X600400Y729686D01*
D02*
G37*
G36*
X245000Y685235D02*
X240318Y684304D01*
X236348Y681651D01*
X233696Y677682D01*
X232765Y673000D01*
X233696Y668318D01*
X236348Y664348D01*
X240318Y661696D01*
X245000Y660765D01*
X249682Y661696D01*
X253652Y664348D01*
X256304Y668318D01*
X257235Y673000D01*
X256304Y677682D01*
X253652Y681651D01*
X249682Y684304D01*
X245000Y685235D01*
D02*
G37*
G36*
X910000Y691833D02*
X903367Y690514D01*
X897744Y686756D01*
X893987Y681133D01*
X892667Y674500D01*
X893987Y667867D01*
X897744Y662244D01*
X903367Y658486D01*
X910000Y657167D01*
X916633Y658486D01*
X922256Y662244D01*
X926014Y667867D01*
X927333Y674500D01*
X926014Y681133D01*
X922256Y686756D01*
X916633Y690514D01*
X910000Y691833D01*
D02*
G37*
G36*
X80000Y691833D02*
X73367Y690514D01*
X67744Y686756D01*
X63986Y681133D01*
X62667Y674500D01*
X63986Y667867D01*
X67744Y662244D01*
X73367Y658486D01*
X80000Y657167D01*
X86633Y658486D01*
X92256Y662244D01*
X96014Y667867D01*
X97333Y674500D01*
X96014Y681133D01*
X92256Y686756D01*
X86633Y690514D01*
X80000Y691833D01*
D02*
G37*
G36*
X608250Y687000D02*
X591750D01*
Y682184D01*
X585790Y676225D01*
X583888Y671633D01*
Y662137D01*
X580000D01*
X577269Y661594D01*
X574953Y660047D01*
X573406Y657731D01*
X572863Y655000D01*
X573406Y652269D01*
X574491Y650646D01*
X574771Y648650D01*
X574491Y646654D01*
X573406Y645031D01*
X573161Y643800D01*
X596839D01*
X596594Y645031D01*
X595509Y646654D01*
X595229Y648650D01*
X595509Y650646D01*
X596594Y652269D01*
X597137Y655000D01*
X596877Y656308D01*
Y668943D01*
X600934Y673000D01*
X608250D01*
Y687000D01*
D02*
G37*
G36*
X151500Y624937D02*
Y614500D01*
X161937D01*
X161304Y617682D01*
X158652Y621651D01*
X154682Y624304D01*
X151500Y624937D01*
D02*
G37*
G36*
X148500Y624937D02*
X145318Y624304D01*
X141348Y621651D01*
X138696Y617682D01*
X138063Y614500D01*
X148500D01*
Y624937D01*
D02*
G37*
G36*
X438500Y619388D02*
X436293Y618949D01*
X433151Y616849D01*
X431051Y613707D01*
X430612Y611500D01*
X438500D01*
Y619388D01*
D02*
G37*
G36*
X910000Y637333D02*
X903367Y636014D01*
X897744Y632256D01*
X893987Y626633D01*
X892667Y620000D01*
X893987Y613367D01*
X897744Y607744D01*
X903367Y603986D01*
X910000Y602667D01*
X916633Y603986D01*
X922256Y607744D01*
X926014Y613367D01*
X927333Y620000D01*
X926014Y626633D01*
X922256Y632256D01*
X916633Y636014D01*
X910000Y637333D01*
D02*
G37*
G36*
X80000Y637333D02*
X73367Y636014D01*
X67744Y632256D01*
X63986Y626633D01*
X62667Y620000D01*
X63986Y613367D01*
X67744Y607744D01*
X73367Y603986D01*
X80000Y602667D01*
X86633Y603986D01*
X92256Y607744D01*
X96014Y613367D01*
X97333Y620000D01*
X96014Y626633D01*
X92256Y632256D01*
X86633Y636014D01*
X80000Y637333D01*
D02*
G37*
G36*
X161937Y611500D02*
X151500D01*
Y601063D01*
X154682Y601696D01*
X158652Y604348D01*
X161304Y608318D01*
X161937Y611500D01*
D02*
G37*
G36*
X148500D02*
X138063D01*
X138696Y608318D01*
X141348Y604348D01*
X145318Y601696D01*
X148500Y601063D01*
Y611500D01*
D02*
G37*
G36*
X438500Y608500D02*
X430612D01*
X431051Y606293D01*
X433151Y603151D01*
X436293Y601051D01*
X438500Y600612D01*
Y608500D01*
D02*
G37*
G36*
X596839Y640800D02*
X573161D01*
X573406Y639569D01*
X574491Y637946D01*
X574771Y635950D01*
X574491Y633954D01*
X573406Y632331D01*
X572863Y629600D01*
X573406Y626869D01*
X573506Y626720D01*
Y604500D01*
X570500D01*
Y603811D01*
X568250Y602000D01*
X551750D01*
Y588000D01*
X568250D01*
X570500Y586189D01*
Y585500D01*
X573215D01*
X574125Y582500D01*
X573151Y581849D01*
X572840Y581384D01*
X568767Y580687D01*
X568250Y581073D01*
Y582000D01*
X551750D01*
Y580953D01*
X497466D01*
X469500Y608919D01*
Y619500D01*
X450500D01*
Y616785D01*
X447500Y615875D01*
X446849Y616849D01*
X443707Y618949D01*
X441500Y619388D01*
Y610000D01*
Y600612D01*
X443707Y601051D01*
X446849Y603151D01*
X447500Y604125D01*
X450500Y603215D01*
Y600500D01*
X461081D01*
X490790Y570790D01*
X495000Y569047D01*
X551750D01*
Y568000D01*
X568250D01*
Y568927D01*
X568767Y569313D01*
X572840Y568616D01*
X573151Y568151D01*
X576293Y566051D01*
X578500Y565612D01*
Y575000D01*
X580000D01*
Y576500D01*
X589388D01*
X588949Y578707D01*
X586849Y581849D01*
X585875Y582500D01*
X586785Y585500D01*
X589500D01*
Y604500D01*
X586494D01*
Y622463D01*
X590000D01*
X592731Y623006D01*
X595047Y624553D01*
X596594Y626869D01*
X597137Y629600D01*
X596594Y632331D01*
X595509Y633954D01*
X595229Y635950D01*
X595509Y637946D01*
X596594Y639569D01*
X596839Y640800D01*
D02*
G37*
G36*
X589388Y573500D02*
X581500D01*
Y565612D01*
X583707Y566051D01*
X586849Y568151D01*
X588949Y571293D01*
X589388Y573500D01*
D02*
G37*
G36*
X745000Y580235D02*
X740318Y579304D01*
X736348Y576652D01*
X733696Y572682D01*
X732765Y568000D01*
X733696Y563318D01*
X736348Y559348D01*
X740318Y556696D01*
X745000Y555765D01*
X749682Y556696D01*
X753652Y559348D01*
X756304Y563318D01*
X757235Y568000D01*
X756304Y572682D01*
X753652Y576652D01*
X749682Y579304D01*
X745000Y580235D01*
D02*
G37*
G36*
X910000Y582833D02*
X903367Y581514D01*
X897744Y577756D01*
X893987Y572133D01*
X892667Y565500D01*
X893987Y558867D01*
X897744Y553244D01*
X903367Y549486D01*
X910000Y548167D01*
X916633Y549486D01*
X922256Y553244D01*
X926014Y558867D01*
X927333Y565500D01*
X926014Y572133D01*
X922256Y577756D01*
X916633Y581514D01*
X910000Y582833D01*
D02*
G37*
G36*
X80000Y582833D02*
X73367Y581514D01*
X67744Y577756D01*
X63986Y572133D01*
X62667Y565500D01*
X63986Y558867D01*
X67744Y553244D01*
X73367Y549486D01*
X80000Y548167D01*
X86633Y549486D01*
X92256Y553244D01*
X96014Y558867D01*
X97333Y565500D01*
X96014Y572133D01*
X92256Y577756D01*
X86633Y581514D01*
X80000Y582833D01*
D02*
G37*
G36*
X841500Y512937D02*
Y502500D01*
X851937D01*
X851304Y505682D01*
X848652Y509652D01*
X844682Y512304D01*
X841500Y512937D01*
D02*
G37*
G36*
X838500Y512937D02*
X835318Y512304D01*
X831348Y509652D01*
X828696Y505682D01*
X828063Y502500D01*
X838500D01*
Y512937D01*
D02*
G37*
G36*
X971500Y515486D02*
Y502500D01*
X984485D01*
X983659Y506658D01*
X980454Y511454D01*
X975657Y514659D01*
X971500Y515486D01*
D02*
G37*
G36*
X968500D02*
X964342Y514659D01*
X959546Y511454D01*
X956341Y506658D01*
X955514Y502500D01*
X968500D01*
Y515486D01*
D02*
G37*
G36*
X838500Y499500D02*
X828063D01*
X828696Y496318D01*
X831348Y492349D01*
X835318Y489696D01*
X838500Y489063D01*
Y499500D01*
D02*
G37*
G36*
X851937D02*
X841500D01*
Y489063D01*
X844682Y489696D01*
X848652Y492349D01*
X851304Y496318D01*
X851937Y499500D01*
D02*
G37*
G36*
X984485Y499500D02*
X971500D01*
Y486514D01*
X975657Y487341D01*
X980454Y490546D01*
X983659Y495342D01*
X984485Y499500D01*
D02*
G37*
G36*
X968500D02*
X955514D01*
X956341Y495342D01*
X959546Y490546D01*
X964342Y487341D01*
X968500Y486514D01*
Y499500D01*
D02*
G37*
G36*
X971500Y464686D02*
Y451700D01*
X984485D01*
X983659Y455858D01*
X980454Y460654D01*
X975657Y463859D01*
X971500Y464686D01*
D02*
G37*
G36*
X968500D02*
X964342Y463859D01*
X959546Y460654D01*
X956341Y455858D01*
X955514Y451700D01*
X968500D01*
Y464686D01*
D02*
G37*
G36*
X984485Y448700D02*
X971500D01*
Y435714D01*
X975657Y436541D01*
X980454Y439746D01*
X983659Y444542D01*
X984485Y448700D01*
D02*
G37*
G36*
X968500D02*
X955514D01*
X956341Y444542D01*
X959546Y439746D01*
X964342Y436541D01*
X968500Y435714D01*
Y448700D01*
D02*
G37*
G36*
X121500Y455061D02*
Y426500D01*
X150061D01*
X149228Y432832D01*
X146205Y440129D01*
X141396Y446396D01*
X135129Y451205D01*
X127832Y454228D01*
X121500Y455061D01*
D02*
G37*
G36*
X118500D02*
X112168Y454228D01*
X104871Y451205D01*
X98604Y446396D01*
X93795Y440129D01*
X90772Y432832D01*
X89939Y426500D01*
X118500D01*
Y455061D01*
D02*
G37*
G36*
X433854Y470000D02*
X250000D01*
X180000Y400000D01*
X141366D01*
X140402Y402841D01*
X141396Y403604D01*
X146205Y409871D01*
X149228Y417168D01*
X150061Y423500D01*
X120000D01*
X89939D01*
X90772Y417168D01*
X93795Y409871D01*
X98604Y403604D01*
X99598Y402841D01*
X98634Y400000D01*
X50000D01*
Y100000D01*
X98634D01*
X99598Y97159D01*
X98604Y96396D01*
X93795Y90129D01*
X90772Y82832D01*
X89939Y76500D01*
X120000D01*
X150061D01*
X149228Y82832D01*
X146205Y90129D01*
X141396Y96396D01*
X140402Y97159D01*
X141366Y100000D01*
X175000D01*
X250000Y25000D01*
X435000D01*
Y468854D01*
X433854Y470000D01*
D02*
G37*
G36*
X825000Y397235D02*
X820318Y396304D01*
X816348Y393652D01*
X815865Y392929D01*
X813250Y392000D01*
Y392000D01*
X796750D01*
Y378000D01*
X813250D01*
Y378000D01*
X815865Y377071D01*
X816348Y376348D01*
X820011Y373901D01*
X820175Y372300D01*
X820011Y370699D01*
X816348Y368251D01*
X816250Y368104D01*
X813250Y369014D01*
Y372000D01*
X806500D01*
Y365000D01*
Y358000D01*
X813083D01*
X813696Y354918D01*
X816348Y350948D01*
X818965Y349200D01*
X818055Y346200D01*
X813000D01*
Y335898D01*
X771788Y294686D01*
X733787D01*
X733787Y294686D01*
X730080Y293949D01*
X726938Y291849D01*
X726938Y291849D01*
X718151Y283062D01*
X716051Y279920D01*
X715314Y276213D01*
X715314Y276213D01*
Y250000D01*
Y240000D01*
X715000D01*
Y230436D01*
X714814Y229500D01*
X714814Y229500D01*
Y223762D01*
X705958Y214906D01*
X703186Y216054D01*
Y242000D01*
X707750D01*
Y278000D01*
X679250D01*
Y242000D01*
X683814D01*
Y203000D01*
X679250D01*
Y167000D01*
X707750D01*
Y189302D01*
X731349Y212901D01*
X731349Y212901D01*
X733449Y216043D01*
X734186Y219750D01*
X735000Y220000D01*
Y240000D01*
X734686D01*
Y250000D01*
Y272201D01*
X737799Y275314D01*
X775800D01*
X775800Y275314D01*
X779507Y276051D01*
X782649Y278151D01*
X826698Y322200D01*
X837000D01*
Y346200D01*
X831945D01*
X831035Y349200D01*
X833652Y350948D01*
X836304Y354918D01*
X836937Y358100D01*
X825000D01*
Y361100D01*
X836937D01*
X836304Y364282D01*
X833652Y368251D01*
X829989Y370699D01*
X829825Y372300D01*
X829989Y373901D01*
X833652Y376348D01*
X836304Y380318D01*
X837235Y385000D01*
X836304Y389682D01*
X833652Y393652D01*
X829682Y396304D01*
X825000Y397235D01*
D02*
G37*
G36*
X803500Y372000D02*
X796750D01*
Y366500D01*
X803500D01*
Y372000D01*
D02*
G37*
G36*
X658220Y390418D02*
Y361100D01*
X687538D01*
X686678Y367627D01*
X683580Y375108D01*
X678651Y381531D01*
X672228Y386460D01*
X664747Y389558D01*
X658220Y390418D01*
D02*
G37*
G36*
X655220Y390418D02*
X648693Y389558D01*
X641212Y386460D01*
X634789Y381531D01*
X629860Y375108D01*
X626762Y367627D01*
X625902Y361100D01*
X655220D01*
Y390418D01*
D02*
G37*
G36*
X803500Y363500D02*
X796750D01*
Y358000D01*
X803500D01*
Y363500D01*
D02*
G37*
G36*
X655220Y358100D02*
X625902D01*
X626762Y351573D01*
X629860Y344092D01*
X634789Y337669D01*
X641212Y332740D01*
X648693Y329641D01*
X655220Y328782D01*
Y358100D01*
D02*
G37*
G36*
X687538D02*
X658220D01*
Y328782D01*
X664747Y329641D01*
X672228Y332740D01*
X678651Y337669D01*
X683580Y344092D01*
X686678Y351573D01*
X687538Y358100D01*
D02*
G37*
G36*
X915000Y339235D02*
X910318Y338304D01*
X906348Y335652D01*
X903696Y331682D01*
X902765Y327000D01*
X903696Y322318D01*
X906348Y318349D01*
X910318Y315696D01*
X915000Y314765D01*
X919682Y315696D01*
X923652Y318349D01*
X926304Y322318D01*
X927235Y327000D01*
X926304Y331682D01*
X923652Y335652D01*
X919682Y338304D01*
X915000Y339235D01*
D02*
G37*
G36*
X651213Y304686D02*
X651213Y304686D01*
X590000D01*
X590000Y304686D01*
X586293Y303949D01*
X583151Y301849D01*
X583151Y301849D01*
X565842Y284541D01*
X563743Y281398D01*
X563005Y277691D01*
X563005Y277691D01*
Y263525D01*
X562304Y260000D01*
X563080Y256098D01*
X565290Y252791D01*
X568598Y250580D01*
X572500Y249804D01*
X576402Y250580D01*
X579710Y252791D01*
X581920Y256098D01*
X582696Y260000D01*
X582378Y261601D01*
Y273679D01*
X594012Y285314D01*
X647201D01*
X650314Y282201D01*
Y226262D01*
X627052Y203000D01*
X612250D01*
Y167000D01*
X616814D01*
Y128000D01*
X612250D01*
Y92000D01*
X640750D01*
Y128000D01*
X636186D01*
Y167000D01*
X640750D01*
Y189302D01*
X666849Y215401D01*
X666849Y215401D01*
X668949Y218543D01*
X669686Y222250D01*
Y286213D01*
X669686Y286213D01*
X668949Y289920D01*
X666849Y293062D01*
X666849Y293062D01*
X658062Y301849D01*
X654920Y303949D01*
X651213Y304686D01*
D02*
G37*
G36*
X572500Y320196D02*
X568598Y319420D01*
X565290Y317210D01*
X563080Y313902D01*
X562304Y310000D01*
X563080Y306098D01*
X565290Y302791D01*
X568598Y300580D01*
X572500Y299804D01*
X576402Y300580D01*
X579710Y302791D01*
X581920Y306098D01*
X582696Y310000D01*
X581920Y313902D01*
X579710Y317210D01*
X576402Y319420D01*
X572500Y320196D01*
D02*
G37*
G36*
X640750Y278000D02*
X612250D01*
Y269686D01*
X603787D01*
X603787Y269686D01*
X600080Y268949D01*
X596938Y266849D01*
X596938Y266849D01*
X588151Y258062D01*
X586051Y254920D01*
X585314Y251213D01*
X585314Y251213D01*
Y169686D01*
X575063D01*
X572500Y170196D01*
X568598Y169420D01*
X565290Y167210D01*
X563080Y163902D01*
X562304Y160000D01*
X563080Y156098D01*
X565290Y152790D01*
X568598Y150580D01*
X572500Y149804D01*
X575063Y150314D01*
X585314D01*
Y112216D01*
X582314Y111921D01*
X581920Y113902D01*
X579710Y117210D01*
X576402Y119420D01*
X572500Y120196D01*
X568598Y119420D01*
X565290Y117210D01*
X563080Y113902D01*
X562304Y110000D01*
X563080Y106098D01*
X565290Y102790D01*
X568598Y100580D01*
X572500Y99804D01*
X576402Y100580D01*
X579710Y102790D01*
X581920Y106098D01*
X582314Y108079D01*
X585314Y107784D01*
Y43787D01*
X585314Y43787D01*
X586051Y40080D01*
X588151Y36938D01*
X596938Y28151D01*
X596938Y28151D01*
X600080Y26051D01*
X603787Y25314D01*
X603787Y25314D01*
X612250D01*
Y17000D01*
X640750D01*
Y53000D01*
X612250D01*
Y44686D01*
X607799D01*
X604686Y47799D01*
Y160000D01*
Y247201D01*
X607799Y250314D01*
X612250D01*
Y242000D01*
X640750D01*
Y278000D01*
D02*
G37*
G36*
X752000Y258250D02*
X746500D01*
Y251500D01*
X752000D01*
Y258250D01*
D02*
G37*
G36*
X743500D02*
X738000D01*
Y251500D01*
X743500D01*
Y258250D01*
D02*
G37*
G36*
X752000Y248500D02*
X746500D01*
Y241750D01*
X752000D01*
Y248500D01*
D02*
G37*
G36*
X743500D02*
X738000D01*
Y241750D01*
X743500D01*
Y248500D01*
D02*
G37*
G36*
X776500Y239897D02*
Y231500D01*
X784898D01*
X784420Y233902D01*
X782210Y237210D01*
X778902Y239420D01*
X776500Y239897D01*
D02*
G37*
G36*
X773500D02*
X771098Y239420D01*
X767790Y237210D01*
X765580Y233902D01*
X765102Y231500D01*
X773500D01*
Y239897D01*
D02*
G37*
G36*
X784898Y228500D02*
X776500D01*
Y220103D01*
X778902Y220580D01*
X782210Y222790D01*
X784420Y226098D01*
X784898Y228500D01*
D02*
G37*
G36*
X773500D02*
X765102D01*
X765580Y226098D01*
X767790Y222790D01*
X771098Y220580D01*
X773500Y220103D01*
Y228500D01*
D02*
G37*
G36*
X707750Y128000D02*
X695000D01*
Y111500D01*
X707750D01*
Y128000D01*
D02*
G37*
G36*
X692000D02*
X679250D01*
Y111500D01*
X692000D01*
Y128000D01*
D02*
G37*
G36*
X707750Y108500D02*
X695000D01*
Y92000D01*
X707750D01*
Y108500D01*
D02*
G37*
G36*
X692000D02*
X679250D01*
Y92000D01*
X692000D01*
Y108500D01*
D02*
G37*
G36*
X118500Y73500D02*
X89939D01*
X90772Y67168D01*
X93795Y59871D01*
X98604Y53604D01*
X104871Y48795D01*
X112168Y45772D01*
X118500Y44939D01*
Y73500D01*
D02*
G37*
G36*
X150061D02*
X121500D01*
Y44939D01*
X127832Y45772D01*
X135129Y48795D01*
X141396Y53604D01*
X146205Y59871D01*
X149228Y67168D01*
X150061Y73500D01*
D02*
G37*
G36*
X707750Y53000D02*
X695000D01*
Y36500D01*
X707750D01*
Y53000D01*
D02*
G37*
G36*
X692000D02*
X679250D01*
Y36500D01*
X692000D01*
Y53000D01*
D02*
G37*
G36*
X915000Y45235D02*
X910318Y44304D01*
X906348Y41652D01*
X903696Y37682D01*
X902765Y33000D01*
X903696Y28318D01*
X906348Y24348D01*
X910318Y21696D01*
X915000Y20765D01*
X919682Y21696D01*
X923652Y24348D01*
X926304Y28318D01*
X927235Y33000D01*
X926304Y37682D01*
X923652Y41652D01*
X919682Y44304D01*
X915000Y45235D01*
D02*
G37*
G36*
X707750Y33500D02*
X695000D01*
Y17000D01*
X707750D01*
Y33500D01*
D02*
G37*
G36*
X692000D02*
X679250D01*
Y17000D01*
X692000D01*
Y33500D01*
D02*
G37*
%LPD*%
D26*
X656720Y359600D02*
D03*
D32*
X600000Y680000D02*
D03*
Y700000D02*
D03*
X560000Y595000D02*
D03*
Y575000D02*
D03*
X805000Y385000D02*
D03*
Y365000D02*
D03*
D33*
X725000Y250000D02*
D03*
X745000D02*
D03*
D35*
X70000Y75000D02*
Y450000D01*
X111750Y33250D02*
X120000D01*
X70000Y75000D02*
X111750Y33250D01*
X120000Y75000D02*
Y425000D01*
X150000Y613000D02*
X262000Y501000D01*
X120000Y425000D02*
Y485000D01*
Y33250D02*
Y75000D01*
X440000Y501000D02*
X580000D01*
X262000D02*
X440000D01*
X580000D02*
X840000D01*
X798120Y501000D02*
X965000D01*
X197500Y914500D02*
Y919500D01*
Y660500D02*
Y914500D01*
X245000Y962000D01*
X150000Y613000D02*
X197500Y660500D01*
X745000Y729000D02*
Y862000D01*
Y729000D02*
X840000Y634000D01*
Y501000D02*
Y634000D01*
X965000Y450200D02*
Y501000D01*
X656720Y359600D02*
X798120Y501000D01*
D36*
X625800Y675244D02*
Y720000D01*
X593239Y642683D02*
X625800Y675244D01*
X585383Y642683D02*
X593239D01*
X585000Y642300D02*
X585383Y642683D01*
X601000Y592515D02*
Y634156D01*
X584825Y576339D02*
X601000Y592515D01*
X580000Y575000D02*
X581339Y576339D01*
X593239Y641917D02*
X601000Y634156D01*
X585383Y641917D02*
X593239D01*
X585000Y642300D02*
X585383Y641917D01*
X581339Y576339D02*
X584825D01*
X440000Y501000D02*
Y610000D01*
X580000Y501000D02*
Y575000D01*
Y595000D02*
Y628676D01*
X580924Y629600D01*
X585000D01*
X560000Y595000D02*
X580000D01*
X585000Y655000D02*
X589459D01*
X590383Y655924D01*
Y671633D01*
X598750Y680000D01*
X600000D01*
X693500Y110000D02*
Y113750D01*
X701750Y122000D01*
D38*
X600000Y700000D02*
X600200Y700200D01*
Y719800D01*
X600400Y720000D01*
X574999Y719999D02*
X575000Y720000D01*
X550003Y719999D02*
X574999D01*
X550001Y719997D02*
X550003Y719999D01*
X550000D02*
X550001Y719997D01*
X415001Y719999D02*
X550000D01*
X415000Y720000D02*
X415001Y719999D01*
D41*
X590000Y295000D02*
X651213D01*
X693500Y188750D02*
Y260000D01*
Y185000D02*
Y188750D01*
X724500Y219750D01*
Y229500D01*
X725000Y230000D01*
Y250000D02*
Y276213D01*
Y230000D02*
Y250000D01*
X733787Y285000D02*
X775800D01*
X725000Y276213D02*
X733787Y285000D01*
X775800D02*
X825000Y334200D01*
X626500Y188750D02*
X660000Y222250D01*
Y286213D01*
X651213Y295000D02*
X660000Y286213D01*
X626500Y185000D02*
X630978Y189478D01*
X572500Y260000D02*
X572691Y260191D01*
Y277691D01*
X590000Y295000D01*
X626500Y185000D02*
Y188750D01*
X595000Y160000D02*
Y251213D01*
Y43787D02*
Y160000D01*
X572500Y160000D02*
X572500Y160000D01*
X595000D01*
Y43787D02*
X603787Y35000D01*
X693500Y35000D02*
Y110000D01*
X603787Y260000D02*
X626500D01*
X595000Y251213D02*
X603787Y260000D01*
Y35000D02*
X626500D01*
X626500Y110000D02*
Y185000D01*
D42*
X317500Y110000D02*
D03*
Y310000D02*
D03*
X572500Y110000D02*
D03*
Y310000D02*
D03*
Y160000D02*
D03*
Y260000D02*
D03*
X775000Y230000D02*
D03*
D43*
X575000Y720000D02*
D03*
X600400D02*
D03*
X440000Y610000D02*
D03*
X580000Y575000D02*
D03*
X276750Y440000D02*
D03*
D44*
X625800Y720000D02*
D03*
X460000Y610000D02*
D03*
X393250Y440000D02*
D03*
D45*
X580000Y595000D02*
D03*
D46*
X585000Y655000D02*
D03*
D47*
Y642300D02*
D03*
Y629600D02*
D03*
D48*
X745000Y862000D02*
D03*
Y568000D02*
D03*
X840000Y501000D02*
D03*
Y795000D02*
D03*
X915000Y33000D02*
D03*
Y327000D02*
D03*
X245000Y967000D02*
D03*
Y673000D02*
D03*
X150000Y613000D02*
D03*
Y907000D02*
D03*
X825000Y359600D02*
D03*
Y385000D02*
D03*
D49*
X725000Y230000D02*
D03*
D50*
X120000Y425000D02*
D03*
Y75000D02*
D03*
D51*
X216500Y158600D02*
D03*
X216500Y250000D02*
D03*
X216500Y341400D02*
D03*
D52*
X970000Y709600D02*
D03*
Y760400D02*
D03*
X25000Y709600D02*
D03*
Y760400D02*
D03*
X970000Y450200D02*
D03*
Y501000D02*
D03*
D53*
X80000Y795500D02*
D03*
Y850000D02*
D03*
Y904500D02*
D03*
X910000Y674500D02*
D03*
Y620000D02*
D03*
Y565500D02*
D03*
X80000Y565500D02*
D03*
Y620000D02*
D03*
Y674500D02*
D03*
X910000Y904500D02*
D03*
Y850000D02*
D03*
Y795500D02*
D03*
D54*
X825000Y334200D02*
D03*
D55*
X82000Y452000D02*
D03*
X63500Y45000D02*
D03*
X970000Y970000D02*
D03*
X988500Y933000D02*
D03*
X970000Y896000D02*
D03*
X988500Y859000D02*
D03*
Y563000D02*
D03*
X970000Y526000D02*
D03*
X988500Y489000D02*
D03*
Y415000D02*
D03*
X970000Y378000D02*
D03*
X988500Y341000D02*
D03*
X970000Y304000D02*
D03*
X988500Y267000D02*
D03*
X970000Y230000D02*
D03*
X988500Y193000D02*
D03*
X970000Y156000D02*
D03*
X988500Y119000D02*
D03*
X970000Y82000D02*
D03*
X988500Y45000D02*
D03*
X970000Y8000D02*
D03*
X933000Y970000D02*
D03*
X951500Y933000D02*
D03*
X933000Y896000D02*
D03*
Y748000D02*
D03*
Y674000D02*
D03*
X951500Y563000D02*
D03*
X933000Y526000D02*
D03*
X951500Y489000D02*
D03*
X933000Y452000D02*
D03*
X951500Y415000D02*
D03*
X933000Y378000D02*
D03*
X951500Y341000D02*
D03*
X933000Y304000D02*
D03*
X951500Y267000D02*
D03*
X933000Y230000D02*
D03*
X951500Y193000D02*
D03*
X933000Y156000D02*
D03*
X951500Y119000D02*
D03*
X933000Y82000D02*
D03*
X951500Y45000D02*
D03*
X933000Y8000D02*
D03*
X896000Y970000D02*
D03*
X914500Y933000D02*
D03*
X896000Y748000D02*
D03*
Y526000D02*
D03*
X914500Y489000D02*
D03*
X896000Y452000D02*
D03*
X914500Y415000D02*
D03*
X896000Y378000D02*
D03*
X914500Y267000D02*
D03*
X896000Y230000D02*
D03*
X914500Y193000D02*
D03*
X896000Y156000D02*
D03*
X914500Y119000D02*
D03*
X896000Y82000D02*
D03*
Y8000D02*
D03*
X859000Y970000D02*
D03*
X877500Y933000D02*
D03*
Y859000D02*
D03*
X859000Y748000D02*
D03*
X877500Y711000D02*
D03*
X859000Y674000D02*
D03*
X877500Y637000D02*
D03*
X859000Y600000D02*
D03*
Y526000D02*
D03*
X877500Y489000D02*
D03*
X859000Y452000D02*
D03*
X877500Y415000D02*
D03*
X859000Y378000D02*
D03*
X877500Y341000D02*
D03*
X859000Y304000D02*
D03*
Y230000D02*
D03*
X877500Y193000D02*
D03*
X859000Y156000D02*
D03*
X877500Y119000D02*
D03*
X859000Y82000D02*
D03*
Y8000D02*
D03*
X822000Y970000D02*
D03*
X840500Y933000D02*
D03*
X822000Y896000D02*
D03*
Y822000D02*
D03*
Y748000D02*
D03*
X840500Y711000D02*
D03*
X822000Y674000D02*
D03*
X840500Y637000D02*
D03*
X822000Y600000D02*
D03*
Y526000D02*
D03*
Y452000D02*
D03*
X840500Y415000D02*
D03*
X822000Y304000D02*
D03*
Y230000D02*
D03*
X840500Y193000D02*
D03*
X822000Y156000D02*
D03*
X840500Y119000D02*
D03*
X822000Y82000D02*
D03*
Y8000D02*
D03*
X785000Y970000D02*
D03*
X803500Y933000D02*
D03*
X785000Y896000D02*
D03*
X803500Y859000D02*
D03*
Y785000D02*
D03*
Y711000D02*
D03*
X785000Y674000D02*
D03*
X803500Y637000D02*
D03*
X785000Y600000D02*
D03*
Y526000D02*
D03*
X803500Y489000D02*
D03*
X785000Y452000D02*
D03*
X803500Y415000D02*
D03*
Y341000D02*
D03*
Y193000D02*
D03*
X785000Y156000D02*
D03*
X803500Y119000D02*
D03*
X785000Y82000D02*
D03*
Y8000D02*
D03*
X748000Y970000D02*
D03*
X766500Y933000D02*
D03*
X748000Y896000D02*
D03*
X766500Y859000D02*
D03*
X748000Y822000D02*
D03*
X766500Y711000D02*
D03*
X748000Y674000D02*
D03*
X766500Y637000D02*
D03*
X748000Y600000D02*
D03*
Y526000D02*
D03*
X766500Y489000D02*
D03*
X748000Y452000D02*
D03*
X766500Y415000D02*
D03*
Y341000D02*
D03*
X748000Y304000D02*
D03*
Y230000D02*
D03*
X766500Y193000D02*
D03*
X748000Y156000D02*
D03*
X766500Y119000D02*
D03*
Y45000D02*
D03*
X748000Y8000D02*
D03*
X711000Y970000D02*
D03*
X729500Y933000D02*
D03*
X711000Y896000D02*
D03*
X729500Y859000D02*
D03*
X711000Y822000D02*
D03*
X729500Y785000D02*
D03*
X711000Y674000D02*
D03*
X729500Y637000D02*
D03*
X711000Y526000D02*
D03*
X729500Y489000D02*
D03*
X711000Y452000D02*
D03*
X729500Y415000D02*
D03*
Y341000D02*
D03*
X711000Y304000D02*
D03*
Y230000D02*
D03*
X729500Y193000D02*
D03*
X711000Y156000D02*
D03*
Y82000D02*
D03*
X729500Y45000D02*
D03*
X711000Y8000D02*
D03*
X674000Y970000D02*
D03*
X692500Y933000D02*
D03*
X674000Y896000D02*
D03*
X692500Y859000D02*
D03*
X674000Y822000D02*
D03*
X692500Y785000D02*
D03*
Y711000D02*
D03*
Y637000D02*
D03*
X674000Y600000D02*
D03*
X692500Y563000D02*
D03*
X674000Y526000D02*
D03*
X692500Y489000D02*
D03*
X674000Y452000D02*
D03*
X692500Y415000D02*
D03*
Y341000D02*
D03*
X674000Y304000D02*
D03*
Y230000D02*
D03*
Y82000D02*
D03*
Y8000D02*
D03*
X637000Y970000D02*
D03*
X655500Y933000D02*
D03*
X637000Y896000D02*
D03*
X655500Y859000D02*
D03*
X637000Y822000D02*
D03*
X655500Y785000D02*
D03*
Y711000D02*
D03*
Y637000D02*
D03*
X637000Y600000D02*
D03*
X655500Y563000D02*
D03*
X637000Y526000D02*
D03*
X655500Y489000D02*
D03*
X637000Y230000D02*
D03*
X655500Y193000D02*
D03*
Y119000D02*
D03*
X637000Y82000D02*
D03*
X655500Y45000D02*
D03*
X637000Y8000D02*
D03*
X600000Y970000D02*
D03*
X618500Y933000D02*
D03*
X600000Y896000D02*
D03*
X618500Y859000D02*
D03*
X600000Y822000D02*
D03*
X618500Y785000D02*
D03*
Y637000D02*
D03*
X600000Y600000D02*
D03*
X618500Y563000D02*
D03*
X600000Y526000D02*
D03*
X618500Y489000D02*
D03*
X600000Y452000D02*
D03*
X618500Y415000D02*
D03*
X600000Y378000D02*
D03*
X618500Y341000D02*
D03*
X600000Y8000D02*
D03*
X563000Y970000D02*
D03*
X581500Y933000D02*
D03*
X563000Y896000D02*
D03*
X581500Y859000D02*
D03*
X563000Y822000D02*
D03*
X581500Y785000D02*
D03*
X563000Y526000D02*
D03*
X581500Y489000D02*
D03*
X563000Y452000D02*
D03*
X581500Y415000D02*
D03*
X563000Y378000D02*
D03*
X581500Y341000D02*
D03*
X563000Y230000D02*
D03*
X581500Y193000D02*
D03*
X563000Y82000D02*
D03*
X581500Y45000D02*
D03*
X563000Y8000D02*
D03*
X526000Y970000D02*
D03*
X544500Y933000D02*
D03*
X526000Y896000D02*
D03*
X544500Y859000D02*
D03*
X526000Y822000D02*
D03*
X544500Y785000D02*
D03*
X526000Y600000D02*
D03*
X544500Y563000D02*
D03*
X526000Y526000D02*
D03*
X544500Y489000D02*
D03*
X526000Y452000D02*
D03*
X544500Y415000D02*
D03*
X526000Y378000D02*
D03*
X544500Y341000D02*
D03*
X526000Y304000D02*
D03*
X544500Y267000D02*
D03*
X526000Y230000D02*
D03*
X544500Y193000D02*
D03*
X526000Y156000D02*
D03*
X544500Y119000D02*
D03*
X526000Y82000D02*
D03*
X544500Y45000D02*
D03*
X526000Y8000D02*
D03*
X489000Y970000D02*
D03*
X507500Y933000D02*
D03*
X489000Y896000D02*
D03*
X507500Y859000D02*
D03*
X489000Y822000D02*
D03*
X507500Y785000D02*
D03*
X489000Y748000D02*
D03*
X507500Y637000D02*
D03*
X489000Y600000D02*
D03*
X507500Y563000D02*
D03*
X489000Y526000D02*
D03*
X507500Y489000D02*
D03*
X489000Y452000D02*
D03*
X507500Y415000D02*
D03*
X489000Y378000D02*
D03*
X507500Y341000D02*
D03*
X489000Y304000D02*
D03*
X507500Y267000D02*
D03*
X489000Y230000D02*
D03*
X507500Y193000D02*
D03*
X489000Y156000D02*
D03*
X507500Y119000D02*
D03*
X489000Y82000D02*
D03*
X507500Y45000D02*
D03*
X489000Y8000D02*
D03*
X452000Y970000D02*
D03*
X470500Y933000D02*
D03*
X452000Y896000D02*
D03*
X470500Y859000D02*
D03*
X452000Y822000D02*
D03*
X470500Y785000D02*
D03*
Y637000D02*
D03*
X452000Y452000D02*
D03*
X470500Y415000D02*
D03*
X452000Y378000D02*
D03*
X470500Y341000D02*
D03*
X452000Y304000D02*
D03*
X470500Y267000D02*
D03*
X452000Y230000D02*
D03*
X470500Y193000D02*
D03*
X452000Y156000D02*
D03*
X470500Y119000D02*
D03*
X452000Y82000D02*
D03*
X470500Y45000D02*
D03*
X452000Y8000D02*
D03*
X415000Y970000D02*
D03*
X433500Y933000D02*
D03*
X415000Y896000D02*
D03*
X433500Y859000D02*
D03*
X415000Y822000D02*
D03*
X433500Y637000D02*
D03*
X415000Y600000D02*
D03*
X433500Y563000D02*
D03*
X415000Y526000D02*
D03*
X433500Y489000D02*
D03*
X415000Y8000D02*
D03*
X378000Y970000D02*
D03*
X396500Y933000D02*
D03*
X378000Y896000D02*
D03*
X396500Y859000D02*
D03*
X378000Y822000D02*
D03*
Y748000D02*
D03*
X396500Y711000D02*
D03*
Y637000D02*
D03*
X378000Y600000D02*
D03*
X396500Y563000D02*
D03*
X378000Y526000D02*
D03*
X396500Y489000D02*
D03*
X378000Y8000D02*
D03*
X341000Y970000D02*
D03*
X359500Y933000D02*
D03*
X341000Y896000D02*
D03*
X359500Y859000D02*
D03*
X341000Y822000D02*
D03*
Y748000D02*
D03*
X359500Y711000D02*
D03*
Y637000D02*
D03*
X341000Y600000D02*
D03*
X359500Y563000D02*
D03*
X341000Y526000D02*
D03*
X359500Y489000D02*
D03*
X341000Y8000D02*
D03*
X304000Y970000D02*
D03*
X322500Y933000D02*
D03*
X304000Y896000D02*
D03*
X322500Y859000D02*
D03*
X304000Y822000D02*
D03*
Y748000D02*
D03*
X322500Y711000D02*
D03*
X304000Y674000D02*
D03*
X322500Y637000D02*
D03*
X304000Y600000D02*
D03*
X322500Y563000D02*
D03*
X304000Y526000D02*
D03*
X322500Y489000D02*
D03*
X304000Y8000D02*
D03*
X267000Y970000D02*
D03*
X285500Y933000D02*
D03*
X267000Y896000D02*
D03*
X285500Y859000D02*
D03*
X267000Y822000D02*
D03*
Y748000D02*
D03*
X285500Y711000D02*
D03*
Y563000D02*
D03*
X267000Y526000D02*
D03*
X285500Y489000D02*
D03*
X267000Y8000D02*
D03*
X248500Y933000D02*
D03*
X230000Y896000D02*
D03*
X248500Y859000D02*
D03*
X230000Y822000D02*
D03*
Y748000D02*
D03*
X248500Y711000D02*
D03*
Y637000D02*
D03*
X230000Y600000D02*
D03*
X248500Y563000D02*
D03*
X230000Y526000D02*
D03*
X248500Y489000D02*
D03*
X230000Y8000D02*
D03*
X193000Y970000D02*
D03*
X211500Y933000D02*
D03*
X193000Y896000D02*
D03*
X211500Y859000D02*
D03*
X193000Y822000D02*
D03*
Y748000D02*
D03*
X211500Y711000D02*
D03*
Y637000D02*
D03*
X193000Y600000D02*
D03*
Y526000D02*
D03*
X211500Y489000D02*
D03*
X193000Y452000D02*
D03*
X211500Y45000D02*
D03*
X193000Y8000D02*
D03*
X156000Y970000D02*
D03*
X174500Y933000D02*
D03*
Y859000D02*
D03*
X156000Y748000D02*
D03*
X174500Y711000D02*
D03*
Y637000D02*
D03*
X156000Y526000D02*
D03*
X174500Y489000D02*
D03*
X156000Y452000D02*
D03*
X174500Y415000D02*
D03*
X156000Y82000D02*
D03*
X174500Y45000D02*
D03*
X156000Y8000D02*
D03*
X119000Y970000D02*
D03*
X137500Y859000D02*
D03*
X119000Y822000D02*
D03*
X137500Y785000D02*
D03*
X119000Y748000D02*
D03*
X137500Y711000D02*
D03*
Y637000D02*
D03*
X119000Y600000D02*
D03*
Y526000D02*
D03*
Y8000D02*
D03*
X82000Y970000D02*
D03*
X100500Y785000D02*
D03*
Y711000D02*
D03*
X82000Y526000D02*
D03*
X100500Y489000D02*
D03*
Y415000D02*
D03*
X82000Y8000D02*
D03*
X45000Y970000D02*
D03*
X63500Y933000D02*
D03*
X45000Y896000D02*
D03*
X63500Y711000D02*
D03*
X45000Y526000D02*
D03*
X63500Y489000D02*
D03*
X45000Y452000D02*
D03*
Y378000D02*
D03*
Y304000D02*
D03*
Y230000D02*
D03*
Y156000D02*
D03*
Y82000D02*
D03*
Y8000D02*
D03*
X8000Y970000D02*
D03*
X26500Y933000D02*
D03*
X8000Y896000D02*
D03*
Y600000D02*
D03*
X26500Y563000D02*
D03*
X8000Y526000D02*
D03*
X26500Y489000D02*
D03*
X8000Y452000D02*
D03*
X26500Y415000D02*
D03*
X8000Y378000D02*
D03*
X26500Y341000D02*
D03*
X8000Y304000D02*
D03*
X26500Y267000D02*
D03*
X8000Y230000D02*
D03*
X26500Y193000D02*
D03*
X8000Y156000D02*
D03*
X26500Y119000D02*
D03*
X8000Y82000D02*
D03*
X26500Y45000D02*
D03*
X8000Y8000D02*
D03*
X550001Y719997D02*
D03*
X415000Y720000D02*
D03*
D56*
X626500Y110000D02*
D03*
X693500D02*
D03*
X626500Y260000D02*
D03*
X693500D02*
D03*
X626500Y185000D02*
D03*
X693500D02*
D03*
Y35000D02*
D03*
X626500D02*
D03*
D57*
X656720Y359600D02*
X825000D01*
D58*
X495000Y575000D02*
X560000D01*
X460000Y610000D02*
X495000Y575000D01*
M02*
