M48
;Layer_Color=9474304
;FILE_FORMAT=4:4
METRIC,LZ
;TYPE=PLATED
T1F00S00C0.3000
T2F00S00C0.7000
T3F00S00C0.8000
T4F00S00C0.9000
T5F00S00C1.1000
T6F00S00C1.2000
T7F00S00C1.3000
T8F00S00C1.5000
T9F00S00C1.6000
T10F00S00C3.4000
T11F00S00C3.5000
%
T01
X00748Y00008
X00785
X00822
X00859
X00896
X00933
X0097
X009885Y00045
X009515
X00933Y00082
X0097
X009885Y00119
X009515
X009145
X008775
X008405
X008035
X007665
X00748Y00156
X00785
X00822
X00859
X00896
X00933
X0097
X009885Y00193
X009515
X009145
X008775
X008405
X008035
X007665
X00748Y0023
X00822
X00859
X00896
X00933
X0097
X009885Y00267
X009515
X009145
X00933Y00304
X0097
X00859
X00822
X00748
X00785Y00082
X00822
X00859
X00896
X007665Y00045
X007295
X00711Y00082
X00674
X00637
X006555Y00119
Y00193
X00637Y0023
X00674
X00711
X007295Y00193
X00711Y00156
Y00304
X00674
X00526
X00489
X00452
X004705Y00267
X005075
X005445
X00526Y0023
X00563
X005815Y00193
X005445
X005075
X004705
X00452Y0023
X00489
Y00156
X00526
X005445Y00119
X005075
X004705
X00452Y00156
Y00082
X00489
X00526
X00563
X005815Y00045
X005445
X005075
X004705
X00452Y00008
X00489
X00526
X00563
X006
X00637
X00674
X00711
X006555Y00045
X00415Y00008
X00378
X00341
X00304
X00267
X0023
X00193
X00156
X00119
X00082
X00045
X00008
X000265Y00045
X000635
X00045Y00082
X00008
X000265Y00119
X00008Y00156
X00045
X000265Y00193
X00008Y0023
X00045
X000265Y00267
X00008Y00304
X00045
X00156Y00082
X001745Y00045
X002115
X001745Y00415
X00156Y00452
X00193
X002115Y00489
X002485
X002855
X003225
X00304Y00526
X00267
X0023
X00193
X00156
X00119
X00082
X00045
X00008
X000265Y00563
X00008Y006
X00119
X001375Y00637
X001745
X002115
X002485
X0023Y006
X00193
X002485Y00563
X002855
X003225
X00304Y006
X003225Y00637
X00304Y00674
X003225Y00711
X002855
X002485
X002115
X001745
X001375
X001005
X000635
Y00489
X001005
X00082Y00452
X00045
X00008
X000265Y00489
Y00415
X00008Y00378
X00045
X000265Y00341
X001005Y00415
X001745Y00489
X003595
X003965
X004335
X00415Y00526
X00378
X00341
X003595Y00563
X003965
X004335
X00415Y006
X00378
X00341
X003595Y00637
X003965
X004335
X004705
X005075
X00489Y006
X00526
X005445Y00563
X005075
X00489Y00526
X00526
X00563
X006
X00637
X00674
X00711
X007295Y00489
X006925
X006555
X006185
X005815
X005445
X005075
X00489Y00452
X00526
X00563
X006
X006185Y00415
X005815
X005445
X005075
X004705
X00452Y00452
Y00378
X00489
X00526
X00563
X006
X006185Y00341
X005815
X005445
X005075
X004705
X006925
X007295
Y00415
X006925
X00674Y00452
X00711
X006925Y00563
X006555
X006185
X006Y006
X00637
X00674
X006925Y00637
X007295
X00711Y00674
X006925Y00711
X006555
Y00637
X006185
X00550001Y00719997
X00415Y0072
X003965Y00711
X003595
X007665
X008035
X008405
X008775
X00859Y00674
X00822
X00785
X00748
X007665Y00637
X008035
X008405
X008775
X00859Y006
X00822
X00785
X00748
Y00526
X00785
X00822
X00859
X00896
X00933
X0097
X009885Y00563
X009515
Y00489
X009885
Y00415
X009515
X009145
X008775
X008405
X008035
X007665
X00748Y00452
X00785
X00822
X00859
X00896
X00933
X009145Y00489
X008775
X008035
X007665
Y00341
X008035
X008775
X00859Y00378
X00896
X00933
X0097
X009885Y00341
X009515
X00933Y00674
Y00748
X00896
X00859
X00822
X008035Y00785
X00822Y00822
X008035Y00859
X007665
X00748Y00896
X00785
X00822
X008405Y00933
X008775
X009145
X009515
X009885
X0097Y0097
X00933
X00896
X00859
X00822
X00785
X00748
X007665Y00933
X008035
X008775Y00859
X00933Y00896
X0097
X009885Y00859
X00748Y00822
X00711
X00674
X00637
X006
X00563
X00526
X00489
X00452
X00415
X00378
X00341
X003595Y00859
X003965
X004335
X004705
X005075
X005445
X005815
X006185
X006555
X006925
X007295
X00711Y00896
X00674
X00637
X006
X00563
X00526
X00489
X00452
X00415
X00378
X00341
X003595Y00933
X003965
X004335
X004705
X005075
X005445
X005815
X006185
X006555
X006925
X007295
X00711Y0097
X00674
X00637
X006
X00563
X00526
X00489
X00452
X00415
X00378
X00341
Y00748
X00378
X00489
X005075Y00785
X005445
X005815
X006185
X006555
X006925
X007295
X004705
X00304Y00822
X00267
X0023
X00193
X002115Y00859
X002485
X002855
X003225
X00304Y00896
X00267
X0023
X00193
X002115Y00933
X002485
X002855
X003225
X00304Y0097
X00267
X00193
X00156
X00119
X00082
X00045
X00008
X000265Y00933
X000635
X00045Y00896
X00008
X001375Y00859
X001745
Y00933
X00119Y00822
X001375Y00785
X001005
X00119Y00748
X00156
X00193
X0023
X00267
X00304
T02
X00585Y006296
Y006423
Y00655
T03
X0044Y0061
X0046
X0058Y00595
Y00575
T04
X00775Y0023
X00725
X0027675Y0044
X0039325
X00575Y0072
X006004
X006258
T05
X005725Y0011
Y0016
Y0026
Y0031
X003175
Y0011
T06
X00825Y003342
Y003596
Y00385
T07
X00915Y00033
Y00327
X00245Y00673
X0015Y00613
X00745Y00568
X0084Y00501
Y00795
X00745Y00862
X00245Y00967
X0015Y00907
T08
X0008Y005655
Y0062
Y006745
X00025Y007096
X0091Y006745
Y0062
Y005655
X0097Y00501
Y004502
X0097Y007096
Y007604
X0091Y007955
Y0085
Y009045
X0008Y009045
Y0085
Y007955
X00025Y007604
T09
X002165Y001586
X002165Y0025
X002165Y003414
T10
X0012Y00075
Y00425
T11
X0065672Y003596
M30
